<svg version="1.1" viewBox="0.0 0.0 604.0 371.0" fill="none" stroke="none" stroke-linecap="square" stroke-miterlimit="10" width="604" height="371" xmlns:xlink="http://www.w3.org/1999/xlink" xmlns="http://www.w3.org/2000/svg"><path fill="#cccccc" d="M0 0L604.0 0L604.0 371.0L0 371.0L0 0Z" fill-rule="nonzero"/><path fill="#2e5dab" d="M340.3944 156.01375L400.24567 213.67845L400.24567 234.04346L340.3944 176.37875Z" fill-rule="nonzero"/><path fill="#2e5dab" d="M456.21066 157.15718C456.21066 187.57889 435.4052 216.16202 400.24567 234.04346L400.24567 213.67845C435.4052 195.79703 456.21066 167.2139 456.21066 136.79218Z" fill-rule="nonzero"/><path fill="#2e5dab" d="M320.444 113.03301C339.18948 113.03301 354.38568 123.67036 354.38568 136.79218L354.38568 157.15718C354.38568 144.03535 339.18948 133.39801 320.444 133.39801Z" fill-rule="nonzero"/><path fill="#4285f4" d="M320.444 41.755512C379.2617 41.755512 431.3901 68.266975 449.5658 107.42423C467.74146 146.5815 447.83017 189.47794 400.24567 213.67845L340.3944 156.01375C352.29056 149.96362 357.26837 139.2395 352.72446 129.4502C348.18054 119.66088 335.14844 113.03301 320.444 113.03301Z" fill-rule="nonzero"/><path fill="#b09237" d="M286.03235 120.42188C286.74188 120.39063 287.45264 120.375 288.16357 120.375L288.16357 140.74C287.45264 140.74 286.74188 140.75563 286.03235 140.78688Z" fill-rule="nonzero"/><path fill="#fcd04f" d="M279.6387 49.285034C282.4768 49.16004 285.31985 49.0975 288.16357 49.0975L288.16357 120.375C287.45264 120.375 286.74188 120.39063 286.03235 120.42188Z" fill-rule="nonzero"/><path fill="#a85650" d="M277.67502 121.53786C280.3829 120.92197 283.19073 120.54703 286.03235 120.42188L286.03235 140.78688C283.19073 140.91203 280.3829 141.28697 277.67502 141.90286Z" fill-rule="nonzero"/><path fill="#f07b72" d="M246.20937 53.748924C257.0409 51.28536 268.27222 49.785618 279.6387 49.285034L286.03235 120.42188C283.19073 120.54703 280.3829 120.92197 277.67502 121.53786Z" fill-rule="nonzero"/><path fill="#5677ad" d="M269.9767 124.07364C272.3807 123.0057 274.96713 122.15375 277.67502 121.53786L277.67502 141.90286C274.96713 142.51875 272.3807 143.3707 269.9767 144.43864Z" fill-rule="nonzero"/><path fill="#7baaf7" d="M215.41615 63.892056C225.03217 59.6203 235.37782 56.21249 246.20937 53.748924L277.67502 121.53786C274.96713 122.15375 272.3807 123.0057 269.9767 124.07364Z" fill-rule="nonzero"/><path fill="#31848b" d="M266.52832 125.827415C267.62418 125.192825 268.7759 124.60708 269.9767 124.07364L269.9767 144.43864C268.7759 144.97208 267.62418 145.55783 266.52832 146.19241Z" fill-rule="nonzero"/><path fill="#46bdc6" d="M201.62263 70.90716C206.00597 68.368805 210.61288 66.025826 215.41615 63.892056L269.9767 124.07364C268.7759 124.60708 267.62418 125.192825 266.52832 125.827415Z" fill-rule="nonzero"/><path fill="#b34c01" d="M260.7042 130.16888C262.37775 128.55646 264.3345 127.09784 266.52832 125.827415L266.52832 146.19241C264.3345 147.46284 262.37775 148.92145 260.7042 150.53387Z" fill-rule="nonzero"/><path fill="#ff6d01" d="M178.32602 88.27302C185.02028 81.82332 192.84729 75.98887 201.62263 70.90716L266.52832 125.827415C264.3345 127.09784 262.37775 128.55646 260.7042 130.16888Z" fill-rule="nonzero"/><path fill="#24763a" d="M152.3969 164.49916L152.3969 144.13417Z" fill-rule="nonzero"/><path fill="#24763a" d="M254.2219 144.13417C254.2219 139.11673 256.49106 134.22807 260.7042 130.16888L260.7042 150.53387C256.49106 154.59308 254.2219 159.48172 254.2219 164.49916Z" fill-rule="nonzero"/><path fill="#34a853" d="M152.3969 144.13417C152.3969 124.06439 161.47357 104.5098 178.32602 88.27302L260.7042 130.16888C256.49106 134.22807 254.2219 139.11673 254.2219 144.13417Z" fill-rule="nonzero"/><path fill="#b08403" d="M178.32602 220.36032C161.47357 204.12354 152.3969 184.56894 152.3969 164.49916L152.3969 144.13417C152.3969 164.20393 161.47357 183.75853 178.32602 199.99532Z" fill-rule="nonzero"/><path fill="#b08403" d="M254.2219 144.13417L254.2219 164.49916Z" fill-rule="nonzero"/><path fill="#fbbc04" d="M178.32602 199.99532C161.47357 183.75853 152.3969 164.20393 152.3969 144.13417L254.2219 144.13417C254.2219 149.15161 256.49106 154.04025 260.7042 158.09946Z" fill-rule="nonzero"/><path fill="#a42f25" d="M367.9652 241.38545C307.30362 272.2367 222.39926 262.82343 178.32602 220.36032L178.32602 199.99532C222.39926 242.45844 307.30362 251.8717 367.9652 221.02045Z" fill-rule="nonzero"/><path fill="#ea4335" d="M367.9652 221.02045C307.30362 251.8717 222.39926 242.45844 178.32602 199.99532L260.7042 158.09946C271.7225 168.71524 292.94858 171.06856 308.11398 163.35574Z" fill-rule="nonzero"/><path fill="#000000" d="M396.94824 117.30228L398.08887 117.30228L398.08887 118.89603L396.94824 118.89603L396.94824 121.05228L394.9795 121.05228L394.9795 118.89603L390.90137 118.89603L390.80762 117.66165L394.96387 111.09915L396.94824 111.09915L396.94824 117.30228ZM392.77637 117.30228L394.9795 117.30228L394.9795 113.78665L394.8545 114.02103L392.77637 117.30228ZM405.80762 116.9429Q405.80762 119.0054 404.94824 120.09915Q404.1045 121.1929 402.44824 121.1929Q400.82324 121.1929 399.96387 120.11478Q399.1045 119.03665 399.08887 117.03665L399.08887 115.20853Q399.08887 113.11478 399.94824 112.03665Q400.80762 110.95853 402.43262 110.95853Q404.07324 110.95853 404.93262 112.03665Q405.792 113.09915 405.80762 115.09915L405.80762 116.9429ZM403.83887 114.92728Q403.83887 113.6929 403.49512 113.1304Q403.15137 112.5679 402.43262 112.5679Q401.74512 112.5679 401.40137 113.09915Q401.07324 113.6304 401.05762 114.77103L401.05762 117.1929Q401.05762 118.41165 401.38574 119.0054Q401.71387 119.59915 402.44824 119.59915Q403.18262 119.59915 403.49512 119.03665Q403.82324 118.45853 403.83887 117.28665L403.83887 114.92728ZM407.292 120.08353Q407.292 119.61478 407.6045 119.3179Q407.93262 119.02103 408.40137 119.02103Q408.90137 119.02103 409.21387 119.3179Q409.52637 119.61478 409.52637 120.08353Q409.52637 120.55228 409.21387 120.84915Q408.90137 121.1304 408.40137 121.1304Q407.917 121.1304 407.6045 120.84915Q407.292 120.55228 407.292 120.08353ZM417.80762 116.9429Q417.80762 119.0054 416.94824 120.09915Q416.1045 121.1929 414.44824 121.1929Q412.82324 121.1929 411.96387 120.11478Q411.1045 119.03665 411.08887 117.03665L411.08887 115.20853Q411.08887 113.11478 411.94824 112.03665Q412.80762 110.95853 414.43262 110.95853Q416.07324 110.95853 416.93262 112.03665Q417.792 113.09915 417.80762 115.09915L417.80762 116.9429ZM415.83887 114.92728Q415.83887 113.6929 415.49512 113.1304Q415.15137 112.5679 414.43262 112.5679Q413.74512 112.5679 413.40137 113.09915Q413.07324 113.6304 413.05762 114.77103L413.05762 117.1929Q413.05762 118.41165 413.38574 119.0054Q413.71387 119.59915 414.44824 119.59915Q415.18262 119.59915 415.49512 119.03665Q415.82324 118.45853 415.83887 117.28665L415.83887 114.92728ZM419.08887 113.0054Q419.08887 112.09915 419.68262 111.53665Q420.27637 110.95853 421.2295 110.95853Q422.21387 110.95853 422.80762 111.52103Q423.40137 112.08353 423.40137 113.05228L423.40137 113.53665Q423.40137 114.45853 422.80762 115.02103Q422.21387 115.58353 421.24512 115.58353Q420.27637 115.58353 419.68262 115.02103Q419.08887 114.45853 419.08887 113.5054L419.08887 113.0054ZM420.40137 113.53665Q420.40137 113.9429 420.63574 114.1929Q420.87012 114.4429 421.24512 114.4429Q421.63574 114.4429 421.8545 114.1929Q422.08887 113.9429 422.08887 113.52103L422.08887 113.0054Q422.08887 112.59915 421.8545 112.34915Q421.63574 112.09915 421.2295 112.09915Q420.8545 112.09915 420.62012 112.34915Q420.40137 112.59915 420.40137 113.03665L420.40137 113.53665ZM423.83887 118.61478Q423.83887 117.6929 424.43262 117.1304Q425.042 116.5679 425.99512 116.5679Q426.96387 116.5679 427.55762 117.1304Q428.167 117.67728 428.167 118.64603L428.167 119.14603Q428.167 120.0679 427.57324 120.6304Q426.99512 121.1929 426.01074 121.1929Q425.02637 121.1929 424.43262 120.6304Q423.83887 120.05228 423.83887 119.11478L423.83887 118.61478ZM425.15137 119.14603Q425.15137 119.52103 425.40137 119.78665Q425.65137 120.05228 426.01074 120.05228Q426.8545 120.05228 426.8545 119.1304L426.8545 118.61478Q426.8545 118.20853 426.62012 117.95853Q426.38574 117.70853 425.99512 117.70853Q425.62012 117.70853 425.38574 117.95853Q425.15137 118.20853 425.15137 118.6304L425.15137 119.14603ZM421.63574 120.30228L420.68262 119.78665L425.542 112.0054L426.49512 112.52103L421.63574 120.30228Z" fill-rule="nonzero"/><path fill="#000000" d="M261.52704 215.53198L254.69891 215.53198L254.69891 214.1726L257.91766 210.75073Q258.58954 210.01636 258.90204 209.4851Q259.23016 208.93823 259.23016 208.45386Q259.23016 207.7976 258.8864 207.4226Q258.5583 207.03198 257.9333 207.03198Q257.2614 207.03198 256.8708 207.50073Q256.4958 207.95386 256.4958 208.70386L254.51141 208.70386Q254.51141 207.7976 254.93329 207.0476Q255.37079 206.2976 256.16766 205.87573Q256.96454 205.43823 257.96454 205.43823Q259.4958 205.43823 260.33954 206.18823Q261.1989 206.9226 261.1989 208.26636Q261.1989 209.00073 260.8083 209.76636Q260.4333 210.53198 259.5114 211.5476L257.2458 213.93823L261.52704 213.93823L261.52704 215.53198ZM262.9958 210.64136L263.5739 205.57886L269.15204 205.57886L269.15204 207.21948L265.1989 207.21948L264.9489 209.3601Q265.65204 208.9851 266.4489 208.9851Q267.8708 208.9851 268.66766 209.87573Q269.48016 210.75073 269.48016 212.34448Q269.48016 213.2976 269.0739 214.06323Q268.66766 214.82886 267.90204 215.25073Q267.15204 215.6726 266.1208 215.6726Q265.21454 215.6726 264.4333 215.31323Q263.66766 214.93823 263.21454 214.28198Q262.77704 213.6101 262.7458 212.76636L264.6989 212.76636Q264.7614 213.39136 265.1364 213.7351Q265.5114 214.07886 266.10516 214.07886Q266.77704 214.07886 267.1364 213.59448Q267.4958 213.1101 267.4958 212.2351Q267.4958 211.37573 267.0739 210.93823Q266.66766 210.4851 265.90204 210.4851Q265.1989 210.4851 264.7614 210.84448L264.5739 211.03198L262.9958 210.64136ZM270.8864 214.56323Q270.8864 214.09448 271.1989 213.7976Q271.52704 213.50073 271.9958 213.50073Q272.4958 213.50073 272.8083 213.7976Q273.1208 214.09448 273.1208 214.56323Q273.1208 215.03198 272.8083 215.32886Q272.4958 215.6101 271.9958 215.6101Q271.5114 215.6101 271.1989 215.32886Q270.8864 215.03198 270.8864 214.56323ZM281.40204 211.4226Q281.40204 213.4851 280.54266 214.57886Q279.6989 215.6726 278.04266 215.6726Q276.41766 215.6726 275.5583 214.59448Q274.6989 213.51636 274.6833 211.51636L274.6833 209.68823Q274.6833 207.59448 275.54266 206.51636Q276.40204 205.43823 278.02704 205.43823Q279.66766 205.43823 280.52704 206.51636Q281.3864 207.57886 281.40204 209.57886L281.40204 211.4226ZM279.4333 209.40698Q279.4333 208.1726 279.08954 207.6101Q278.7458 207.0476 278.02704 207.0476Q277.33954 207.0476 276.9958 207.57886Q276.66766 208.1101 276.65204 209.25073L276.65204 211.6726Q276.65204 212.89136 276.98016 213.4851Q277.3083 214.07886 278.04266 214.07886Q278.77704 214.07886 279.08954 213.51636Q279.41766 212.93823 279.4333 211.76636L279.4333 209.40698ZM282.6833 207.4851Q282.6833 206.57886 283.27704 206.01636Q283.8708 205.43823 284.8239 205.43823Q285.8083 205.43823 286.40204 206.00073Q286.9958 206.56323 286.9958 207.53198L286.9958 208.01636Q286.9958 208.93823 286.40204 209.50073Q285.8083 210.06323 284.83954 210.06323Q283.8708 210.06323 283.27704 209.50073Q282.6833 208.93823 282.6833 207.9851L282.6833 207.4851ZM283.9958 208.01636Q283.9958 208.4226 284.23016 208.6726Q284.46454 208.9226 284.83954 208.9226Q285.23016 208.9226 285.4489 208.6726Q285.6833 208.4226 285.6833 208.00073L285.6833 207.4851Q285.6833 207.07886 285.4489 206.82886Q285.23016 206.57886 284.8239 206.57886Q284.4489 206.57886 284.21454 206.82886Q283.9958 207.07886 283.9958 207.51636L283.9958 208.01636ZM287.4333 213.09448Q287.4333 212.1726 288.02704 211.6101Q288.6364 211.0476 289.58954 211.0476Q290.5583 211.0476 291.15204 211.6101Q291.7614 212.15698 291.7614 213.12573L291.7614 213.62573Q291.7614 214.5476 291.16766 215.1101Q290.58954 215.6726 289.60516 215.6726Q288.6208 215.6726 288.02704 215.1101Q287.4333 214.53198 287.4333 213.59448L287.4333 213.09448ZM288.7458 213.62573Q288.7458 214.00073 288.9958 214.26636Q289.2458 214.53198 289.60516 214.53198Q290.4489 214.53198 290.4489 213.6101L290.4489 213.09448Q290.4489 212.68823 290.21454 212.43823Q289.98016 212.18823 289.58954 212.18823Q289.21454 212.18823 288.98016 212.43823Q288.7458 212.68823 288.7458 213.1101L288.7458 213.62573ZM285.23016 214.78198L284.27704 214.26636L289.1364 206.4851L290.08954 207.00073L285.23016 214.78198Z" fill-rule="nonzero"/><path fill="#000000" d="M185.64372 168.87407L183.67497 168.87407L183.67497 161.2647L181.3156 161.98344L181.3156 160.3897L185.4406 158.90532L185.64372 158.90532L185.64372 168.87407ZM195.54997 164.7647Q195.54997 166.8272 194.6906 167.92094Q193.84685 169.0147 192.1906 169.0147Q190.5656 169.0147 189.70622 167.93657Q188.84685 166.85844 188.83122 164.85844L188.83122 163.03032Q188.83122 160.93657 189.6906 159.85844Q190.54997 158.78032 192.17497 158.78032Q193.8156 158.78032 194.67497 159.85844Q195.53435 160.92094 195.54997 162.92094L195.54997 164.7647ZM193.58122 162.74907Q193.58122 161.5147 193.23747 160.9522Q192.89372 160.3897 192.17497 160.3897Q191.48747 160.3897 191.14372 160.92094Q190.8156 161.4522 190.79997 162.59282L190.79997 165.0147Q190.79997 166.23344 191.1281 166.8272Q191.45622 167.42094 192.1906 167.42094Q192.92497 167.42094 193.23747 166.85844Q193.5656 166.28032 193.58122 165.10844L193.58122 162.74907ZM197.03435 167.90532Q197.03435 167.43657 197.34685 167.1397Q197.67497 166.84282 198.14372 166.84282Q198.64372 166.84282 198.95622 167.1397Q199.26872 167.43657 199.26872 167.90532Q199.26872 168.37407 198.95622 168.67094Q198.64372 168.9522 198.14372 168.9522Q197.65935 168.9522 197.34685 168.67094Q197.03435 168.37407 197.03435 167.90532ZM207.54997 164.7647Q207.54997 166.8272 206.6906 167.92094Q205.84685 169.0147 204.1906 169.0147Q202.5656 169.0147 201.70622 167.93657Q200.84685 166.85844 200.83122 164.85844L200.83122 163.03032Q200.83122 160.93657 201.6906 159.85844Q202.54997 158.78032 204.17497 158.78032Q205.8156 158.78032 206.67497 159.85844Q207.53435 160.92094 207.54997 162.92094L207.54997 164.7647ZM205.58122 162.74907Q205.58122 161.5147 205.23747 160.9522Q204.89372 160.3897 204.17497 160.3897Q203.48747 160.3897 203.14372 160.92094Q202.8156 161.4522 202.79997 162.59282L202.79997 165.0147Q202.79997 166.23344 203.1281 166.8272Q203.45622 167.42094 204.1906 167.42094Q204.92497 167.42094 205.23747 166.85844Q205.5656 166.28032 205.58122 165.10844L205.58122 162.74907ZM208.83122 160.8272Q208.83122 159.92094 209.42497 159.35844Q210.01872 158.78032 210.97185 158.78032Q211.95622 158.78032 212.54997 159.34282Q213.14372 159.90532 213.14372 160.87407L213.14372 161.35844Q213.14372 162.28032 212.54997 162.84282Q211.95622 163.40532 210.98747 163.40532Q210.01872 163.40532 209.42497 162.84282Q208.83122 162.28032 208.83122 161.3272L208.83122 160.8272ZM210.14372 161.35844Q210.14372 161.7647 210.3781 162.0147Q210.61247 162.2647 210.98747 162.2647Q211.3781 162.2647 211.59685 162.0147Q211.83122 161.7647 211.83122 161.34282L211.83122 160.8272Q211.83122 160.42094 211.59685 160.17094Q211.3781 159.92094 210.97185 159.92094Q210.59685 159.92094 210.36247 160.17094Q210.14372 160.42094 210.14372 160.85844L210.14372 161.35844ZM213.58122 166.43657Q213.58122 165.5147 214.17497 164.9522Q214.78435 164.3897 215.73747 164.3897Q216.70622 164.3897 217.29997 164.9522Q217.90935 165.49907 217.90935 166.46782L217.90935 166.96782Q217.90935 167.8897 217.3156 168.4522Q216.73747 169.0147 215.7531 169.0147Q214.76872 169.0147 214.17497 168.4522Q213.58122 167.87407 213.58122 166.93657L213.58122 166.43657ZM214.89372 166.96782Q214.89372 167.34282 215.14372 167.60844Q215.39372 167.87407 215.7531 167.87407Q216.59685 167.87407 216.59685 166.9522L216.59685 166.43657Q216.59685 166.03032 216.36247 165.78032Q216.1281 165.53032 215.73747 165.53032Q215.36247 165.53032 215.1281 165.78032Q214.89372 166.03032 214.89372 166.4522L214.89372 166.96782ZM211.3781 168.12407L210.42497 167.60844L215.28435 159.8272L216.23747 160.34282L211.3781 168.12407Z" fill-rule="nonzero"/><path fill="#000000" d="M185.64372 128.39426L183.67497 128.39426L183.67497 120.78488L181.3156 121.50363L181.3156 119.90988L185.4406 118.42551L185.64372 118.42551L185.64372 128.39426ZM195.54997 124.28488Q195.54997 126.34738 194.6906 127.44113Q193.84685 128.53488 192.1906 128.53488Q190.5656 128.53488 189.70622 127.45676Q188.84685 126.37863 188.83122 124.37863L188.83122 122.55051Q188.83122 120.45676 189.6906 119.37863Q190.54997 118.30051 192.17497 118.30051Q193.8156 118.30051 194.67497 119.37863Q195.53435 120.44113 195.54997 122.44113L195.54997 124.28488ZM193.58122 122.26926Q193.58122 121.03488 193.23747 120.47238Q192.89372 119.90988 192.17497 119.90988Q191.48747 119.90988 191.14372 120.44113Q190.8156 120.97238 190.79997 122.11301L190.79997 124.53488Q190.79997 125.75363 191.1281 126.34738Q191.45622 126.94113 192.1906 126.94113Q192.92497 126.94113 193.23747 126.37863Q193.5656 125.80051 193.58122 124.62863L193.58122 122.26926ZM197.03435 127.42551Q197.03435 126.95676 197.34685 126.65988Q197.67497 126.36301 198.14372 126.36301Q198.64372 126.36301 198.95622 126.65988Q199.26872 126.95676 199.26872 127.42551Q199.26872 127.89426 198.95622 128.19113Q198.64372 128.47238 198.14372 128.47238Q197.65935 128.47238 197.34685 128.19113Q197.03435 127.89426 197.03435 127.42551ZM207.54997 124.28488Q207.54997 126.34738 206.6906 127.44113Q205.84685 128.53488 204.1906 128.53488Q202.5656 128.53488 201.70622 127.45676Q200.84685 126.37863 200.83122 124.37863L200.83122 122.55051Q200.83122 120.45676 201.6906 119.37863Q202.54997 118.30051 204.17497 118.30051Q205.8156 118.30051 206.67497 119.37863Q207.53435 120.44113 207.54997 122.44113L207.54997 124.28488ZM205.58122 122.26926Q205.58122 121.03488 205.23747 120.47238Q204.89372 119.90988 204.17497 119.90988Q203.48747 119.90988 203.14372 120.44113Q202.8156 120.97238 202.79997 122.11301L202.79997 124.53488Q202.79997 125.75363 203.1281 126.34738Q203.45622 126.94113 204.1906 126.94113Q204.92497 126.94113 205.23747 126.37863Q205.5656 125.80051 205.58122 124.62863L205.58122 122.26926ZM208.83122 120.34738Q208.83122 119.44113 209.42497 118.87863Q210.01872 118.30051 210.97185 118.30051Q211.95622 118.30051 212.54997 118.86301Q213.14372 119.42551 213.14372 120.39426L213.14372 120.87863Q213.14372 121.80051 212.54997 122.36301Q211.95622 122.92551 210.98747 122.92551Q210.01872 122.92551 209.42497 122.36301Q208.83122 121.80051 208.83122 120.84738L208.83122 120.34738ZM210.14372 120.87863Q210.14372 121.28488 210.3781 121.53488Q210.61247 121.78488 210.98747 121.78488Q211.3781 121.78488 211.59685 121.53488Q211.83122 121.28488 211.83122 120.86301L211.83122 120.34738Q211.83122 119.94113 211.59685 119.69113Q211.3781 119.44113 210.97185 119.44113Q210.59685 119.44113 210.36247 119.69113Q210.14372 119.94113 210.14372 120.37863L210.14372 120.87863ZM213.58122 125.95676Q213.58122 125.03488 214.17497 124.47238Q214.78435 123.90988 215.73747 123.90988Q216.70622 123.90988 217.29997 124.47238Q217.90935 125.01926 217.90935 125.98801L217.90935 126.48801Q217.90935 127.40988 217.3156 127.97238Q216.73747 128.53488 215.7531 128.53488Q214.76872 128.53488 214.17497 127.97238Q213.58122 127.39426 213.58122 126.45676L213.58122 125.95676ZM214.89372 126.48801Q214.89372 126.86301 215.14372 127.12863Q215.39372 127.39426 215.7531 127.39426Q216.59685 127.39426 216.59685 126.47238L216.59685 125.95676Q216.59685 125.55051 216.36247 125.30051Q216.1281 125.05051 215.73747 125.05051Q215.36247 125.05051 215.1281 125.30051Q214.89372 125.55051 214.89372 125.97238L214.89372 126.48801ZM211.3781 127.64426L210.42497 127.12863L215.28435 119.34738L216.23747 119.86301L211.3781 127.64426Z" fill-rule="nonzero"/><path fill="#4285f4" d="M67.17005 302.95C67.17005 306.2637 64.48376 308.95 61.17005 308.95C57.856342 308.95 55.17005 306.2637 55.17005 302.95C55.17005 299.6363 57.856342 296.95 61.17005 296.95C64.48376 296.95 67.17005 299.6363 67.17005 302.95Z" fill-rule="nonzero"/><path fill="#1a1a1a" d="M78.0138 297.4969L81.27943 305.6219L84.52943 297.4969L86.23255 297.4969L86.23255 307.45L84.92005 307.45L84.92005 303.575L85.04505 299.3875L81.77943 307.45L80.7638 307.45L77.5138 299.40314L77.6388 303.575L77.6388 307.45L76.3263 307.45L76.3263 297.4969L78.0138 297.4969ZM89.49818 307.45L88.23255 307.45L88.23255 300.0594L89.49818 300.0594L89.49818 307.45ZM88.1388 298.09064Q88.1388 297.77814 88.3263 297.575Q88.5138 297.35626 88.87318 297.35626Q89.24818 297.35626 89.43568 297.575Q89.6388 297.77814 89.6388 298.09064Q89.6388 298.40314 89.43568 298.60626Q89.24818 298.8094 88.87318 298.8094Q88.5138 298.8094 88.3263 298.60626Q88.1388 298.40314 88.1388 298.09064ZM92.3263 300.0594L92.35755 300.98126Q93.21693 299.91876 94.5763 299.91876Q96.92005 299.91876 96.9513 302.5594L96.9513 307.45L95.68568 307.45L95.68568 302.5594Q95.67005 301.7625 95.31068 301.3875Q94.9513 300.9969 94.2013 300.9969Q93.5763 300.9969 93.10755 301.325Q92.65443 301.65314 92.3888 302.1844L92.3888 307.45L91.12318 307.45L91.12318 300.0594L92.3263 300.0594ZM100.49818 307.45L99.23255 307.45L99.23255 300.0594L100.49818 300.0594L100.49818 307.45ZM99.1388 298.09064Q99.1388 297.77814 99.3263 297.575Q99.5138 297.35626 99.87318 297.35626Q100.24818 297.35626 100.43568 297.575Q100.6388 297.77814 100.6388 298.09064Q100.6388 298.40314 100.43568 298.60626Q100.24818 298.8094 99.87318 298.8094Q99.5138 298.8094 99.3263 298.60626Q99.1388 298.40314 99.1388 298.09064ZM103.3263 300.0594L103.35755 300.98126Q104.21693 299.91876 105.5763 299.91876Q107.92005 299.91876 107.9513 302.5594L107.9513 307.45L106.68568 307.45L106.68568 302.5594Q106.67005 301.7625 106.31068 301.3875Q105.9513 300.9969 105.2013 300.9969Q104.5763 300.9969 104.10755 301.325Q103.65443 301.65314 103.3888 302.1844L103.3888 307.45L102.12318 307.45L102.12318 300.0594L103.3263 300.0594ZM109.8263 303.6844Q109.8263 301.96564 110.62318 300.95Q111.42005 299.91876 112.74818 299.91876Q114.09193 299.91876 114.85755 300.8719L114.92005 300.0594L116.0763 300.0594L116.0763 307.27814Q116.0763 308.71564 115.21693 309.52814Q114.37318 310.35626 112.93568 310.35626Q112.1388 310.35626 111.37318 310.0125Q110.60755 309.6844 110.2013 309.09064L110.85755 308.325Q111.67005 309.325 112.84193 309.325Q113.7638 309.325 114.27943 308.8094Q114.81068 308.29376 114.81068 307.34064L114.81068 306.71564Q114.04505 307.59064 112.73255 307.59064Q111.43568 307.59064 110.62318 306.54376Q109.8263 305.4969 109.8263 303.6844ZM111.09193 303.84064Q111.09193 305.09064 111.60755 305.8094Q112.12318 306.5125 113.04505 306.5125Q114.24818 306.5125 114.81068 305.41876L114.81068 302.04376Q114.21693 300.9969 113.06068 300.9969Q112.1388 300.9969 111.60755 301.71564Q111.09193 302.41876 111.09193 303.84064ZM124.7013 301.1844Q124.42005 301.1375 124.0763 301.1375Q122.84193 301.1375 122.3888 302.2L122.3888 307.45L121.12318 307.45L121.12318 300.0594L122.35755 300.0594L122.37318 300.90314Q122.99818 299.91876 124.1388 299.91876Q124.5138 299.91876 124.7013 300.0125L124.7013 301.1844ZM129.2013 307.59064Q127.68568 307.59064 126.74818 306.60626Q125.81068 305.60626 125.81068 303.95L125.81068 303.73126Q125.81068 302.6219 126.23255 301.7625Q126.65443 300.8875 127.40443 300.40314Q128.15442 299.91876 129.04504 299.91876Q130.48254 299.91876 131.27942 300.8719Q132.0763 301.8094 132.0763 303.59064L132.0763 304.10626L127.0763 304.10626Q127.09193 305.2 127.7013 305.8875Q128.3263 306.5594 129.2638 306.5594Q129.93567 306.5594 130.3888 306.29376Q130.85754 306.0125 131.21692 305.5594L131.98254 306.15314Q131.06067 307.59064 129.2013 307.59064ZM129.04504 300.95Q128.27942 300.95 127.74818 301.5125Q127.23255 302.075 127.10755 303.075L130.81067 303.075L130.81067 302.98126Q130.7638 302.0125 130.29504 301.48126Q129.8263 300.95 129.04504 300.95ZM137.43567 305.48126Q137.43567 304.98126 137.04504 304.7Q136.65442 304.40314 135.7013 304.2Q134.74817 303.9969 134.17004 303.71564Q133.60754 303.41876 133.34192 303.02814Q133.0763 302.6375 133.0763 302.09064Q133.0763 301.16876 133.84192 300.54376Q134.60754 299.91876 135.81067 299.91876Q137.06067 299.91876 137.84192 300.575Q138.62317 301.21564 138.62317 302.23126L137.35754 302.23126Q137.35754 301.7 136.92004 301.325Q136.48254 300.95 135.81067 300.95Q135.12317 300.95 134.73254 301.2625Q134.34192 301.5594 134.34192 302.04376Q134.34192 302.4969 134.7013 302.73126Q135.06067 302.96564 135.99817 303.1844Q136.9513 303.3875 137.54504 303.6844Q138.1388 303.98126 138.42004 304.40314Q138.7013 304.8094 138.7013 305.40314Q138.7013 306.3875 137.90442 306.9969Q137.10754 307.59064 135.84192 307.59064Q134.96692 307.59064 134.27942 307.27814Q133.59192 306.95 133.2013 306.3875Q132.8263 305.825 132.8263 305.16876L134.09192 305.16876Q134.12317 305.8094 134.59192 306.1844Q135.0763 306.5594 135.84192 306.5594Q136.56067 306.5594 136.99817 306.2625Q137.43567 305.96564 137.43567 305.48126ZM143.2013 307.59064Q141.68567 307.59064 140.74817 306.60626Q139.81067 305.60626 139.81067 303.95L139.81067 303.73126Q139.81067 302.6219 140.23254 301.7625Q140.65442 300.8875 141.40442 300.40314Q142.15442 299.91876 143.04504 299.91876Q144.48254 299.91876 145.27942 300.8719Q146.0763 301.8094 146.0763 303.59064L146.0763 304.10626L141.0763 304.10626Q141.09192 305.2 141.7013 305.8875Q142.3263 306.5594 143.2638 306.5594Q143.93567 306.5594 144.3888 306.29376Q144.85754 306.0125 145.21692 305.5594L145.98254 306.15314Q145.06067 307.59064 143.2013 307.59064ZM143.04504 300.95Q142.27942 300.95 141.74817 301.5125Q141.23254 302.075 141.10754 303.075L144.81067 303.075L144.81067 302.98126Q144.7638 302.0125 144.29504 301.48126Q143.8263 300.95 143.04504 300.95ZM150.7013 301.1844Q150.42004 301.1375 150.0763 301.1375Q148.84192 301.1375 148.3888 302.2L148.3888 307.45L147.12317 307.45L147.12317 300.0594L148.35754 300.0594L148.37317 300.90314Q148.99817 299.91876 150.1388 299.91876Q150.5138 299.91876 150.7013 300.0125L150.7013 301.1844ZM154.56067 305.73126L156.40442 300.0594L157.68567 300.0594L155.04504 307.45L154.0763 307.45L151.3888 300.0594L152.68567 300.0594L154.56067 305.73126ZM162.2013 307.59064Q160.68567 307.59064 159.74817 306.60626Q158.81067 305.60626 158.81067 303.95L158.81067 303.73126Q158.81067 302.6219 159.23254 301.7625Q159.65442 300.8875 160.40442 300.40314Q161.15442 299.91876 162.04504 299.91876Q163.48254 299.91876 164.27942 300.8719Q165.0763 301.8094 165.0763 303.59064L165.0763 304.10626L160.0763 304.10626Q160.09192 305.2 160.7013 305.8875Q161.3263 306.5594 162.2638 306.5594Q162.93567 306.5594 163.3888 306.29376Q163.85754 306.0125 164.21692 305.5594L164.98254 306.15314Q164.06067 307.59064 162.2013 307.59064ZM162.04504 300.95Q161.27942 300.95 160.74817 301.5125Q160.23254 302.075 160.10754 303.075L163.81067 303.075L163.81067 302.98126Q163.7638 302.0125 163.29504 301.48126Q162.8263 300.95 162.04504 300.95Z" fill-rule="nonzero"/><path fill="#ea4335" d="M193.17006 302.95C193.17006 306.2637 190.48376 308.95 187.17006 308.95C183.85634 308.95 181.17006 306.2637 181.17006 302.95C181.17006 299.6363 183.85634 296.95 187.17006 296.95C190.48376 296.95 193.17006 299.6363 193.17006 302.95Z" fill-rule="nonzero"/><path fill="#1a1a1a" d="M203.63881 303.5594L203.63881 307.45L202.32631 307.45L202.32631 297.4969L205.99818 297.4969Q207.62318 297.4969 208.54506 298.34064Q209.48256 299.16876 209.48256 300.54376Q209.48256 301.98126 208.57631 302.77814Q207.67006 303.5594 205.98256 303.5594L203.63881 303.5594ZM203.63881 302.48126L205.99818 302.48126Q207.04506 302.48126 207.60756 301.98126Q208.17006 301.48126 208.17006 300.5594Q208.17006 299.66876 207.60756 299.1375Q207.04506 298.59064 206.07631 298.575L203.63881 298.575L203.63881 302.48126ZM215.70131 307.45Q215.59193 307.23126 215.51381 306.66876Q214.63881 307.59064 213.40443 307.59064Q212.31068 307.59064 211.60756 306.98126Q210.92006 306.35626 210.92006 305.40314Q210.92006 304.2469 211.79506 303.60626Q212.67006 302.96564 214.26381 302.96564L215.49818 302.96564L215.49818 302.3875Q215.49818 301.71564 215.09193 301.325Q214.70131 300.9344 213.93568 300.9344Q213.24818 300.9344 212.79506 301.27814Q212.34193 301.6219 212.34193 302.10626L211.06068 302.10626Q211.06068 301.54376 211.45131 301.02814Q211.85756 300.5125 212.52943 300.21564Q213.20131 299.91876 213.99818 299.91876Q215.27943 299.91876 215.99818 300.5594Q216.73256 301.2 216.76381 302.3094L216.76381 305.71564Q216.76381 306.73126 217.01381 307.34064L217.01381 307.45L215.70131 307.45ZM213.59193 306.48126Q214.18568 306.48126 214.71693 306.1844Q215.26381 305.8719 215.49818 305.3719L215.49818 303.85626L214.49818 303.85626Q212.18568 303.85626 212.18568 305.21564Q212.18568 305.8094 212.57631 306.15314Q212.96693 306.48126 213.59193 306.48126ZM222.70131 301.1844Q222.42006 301.1375 222.07631 301.1375Q220.84193 301.1375 220.38881 302.2L220.38881 307.45L219.12318 307.45L219.12318 300.0594L220.35756 300.0594L220.37318 300.90314Q220.99818 299.91876 222.13881 299.91876Q222.51381 299.91876 222.70131 300.0125L222.70131 301.1844ZM225.84193 298.2625L225.84193 300.0594L227.21693 300.0594L227.21693 301.02814L225.84193 301.02814L225.84193 305.6219Q225.84193 306.0594 226.02943 306.29376Q226.21693 306.5125 226.65443 306.5125Q226.87318 306.5125 227.26381 306.41876L227.26381 307.45Q226.76381 307.59064 226.29506 307.59064Q225.43568 307.59064 224.99818 307.075Q224.57631 306.5594 224.57631 305.6219L224.57631 301.02814L223.23256 301.02814L223.23256 300.0594L224.57631 300.0594L224.57631 298.2625L225.84193 298.2625ZM230.32631 300.0594L230.35756 300.98126Q231.21693 299.91876 232.57631 299.91876Q234.92006 299.91876 234.95131 302.5594L234.95131 307.45L233.68568 307.45L233.68568 302.5594Q233.67006 301.7625 233.31068 301.3875Q232.95131 300.9969 232.20131 300.9969Q231.57631 300.9969 231.10756 301.325Q230.65443 301.65314 230.38881 302.1844L230.38881 307.45L229.12318 307.45L229.12318 300.0594L230.32631 300.0594ZM240.20131 307.59064Q238.68568 307.59064 237.74818 306.60626Q236.81068 305.60626 236.81068 303.95L236.81068 303.73126Q236.81068 302.6219 237.23256 301.7625Q237.65443 300.8875 238.40443 300.40314Q239.15443 299.91876 240.04506 299.91876Q241.48256 299.91876 242.27943 300.8719Q243.07631 301.8094 243.07631 303.59064L243.07631 304.10626L238.07631 304.10626Q238.09193 305.2 238.70131 305.8875Q239.32631 306.5594 240.26381 306.5594Q240.93568 306.5594 241.38881 306.29376Q241.85756 306.0125 242.21693 305.5594L242.98256 306.15314Q242.06068 307.59064 240.20131 307.59064ZM240.04506 300.95Q239.27943 300.95 238.74818 301.5125Q238.23256 302.075 238.10756 303.075L241.81068 303.075L241.81068 302.98126Q241.76381 302.0125 241.29506 301.48126Q240.82631 300.95 240.04506 300.95ZM247.70131 301.1844Q247.42006 301.1375 247.07631 301.1375Q245.84193 301.1375 245.38881 302.2L245.38881 307.45L244.12318 307.45L244.12318 300.0594L245.35756 300.0594L245.37318 300.90314Q245.99818 299.91876 247.13881 299.91876Q247.51381 299.91876 247.70131 300.0125L247.70131 301.1844ZM253.43568 305.48126Q253.43568 304.98126 253.04506 304.7Q252.65443 304.40314 251.70131 304.2Q250.74818 303.9969 250.17006 303.71564Q249.60756 303.41876 249.34193 303.02814Q249.07631 302.6375 249.07631 302.09064Q249.07631 301.16876 249.84193 300.54376Q250.60756 299.91876 251.81068 299.91876Q253.06068 299.91876 253.84193 300.575Q254.62318 301.21564 254.62318 302.23126L253.35756 302.23126Q253.35756 301.7 252.92006 301.325Q252.48256 300.95 251.81068 300.95Q251.12318 300.95 250.73256 301.2625Q250.34193 301.5594 250.34193 302.04376Q250.34193 302.4969 250.70131 302.73126Q251.06068 302.96564 251.99818 303.1844Q252.95131 303.3875 253.54506 303.6844Q254.13881 303.98126 254.42006 304.40314Q254.70131 304.8094 254.70131 305.40314Q254.70131 306.3875 253.90443 306.9969Q253.10756 307.59064 251.84193 307.59064Q250.96693 307.59064 250.27943 307.27814Q249.59193 306.95 249.20131 306.3875Q248.82631 305.825 248.82631 305.16876L250.09193 305.16876Q250.12318 305.8094 250.59193 306.1844Q251.07631 306.5594 251.84193 306.5594Q252.56068 306.5594 252.99818 306.2625Q253.43568 305.96564 253.43568 305.48126ZM257.3888 300.95Q258.23254 299.91876 259.5763 299.91876Q261.92004 299.91876 261.9513 302.5594L261.9513 307.45L260.68567 307.45L260.68567 302.5594Q260.67004 301.7625 260.31067 301.3875Q259.9513 300.9969 259.2013 300.9969Q258.5763 300.9969 258.10754 301.325Q257.65442 301.65314 257.3888 302.1844L257.3888 307.45L256.12317 307.45L256.12317 296.95L257.3888 296.95L257.3888 300.95ZM265.49817 307.45L264.23254 307.45L264.23254 300.0594L265.49817 300.0594L265.49817 307.45ZM264.1388 298.09064Q264.1388 297.77814 264.3263 297.575Q264.5138 297.35626 264.87317 297.35626Q265.24817 297.35626 265.43567 297.575Q265.6388 297.77814 265.6388 298.09064Q265.6388 298.40314 265.43567 298.60626Q265.24817 298.8094 264.87317 298.8094Q264.5138 298.8094 264.3263 298.60626Q264.1388 298.40314 264.1388 298.09064ZM273.37317 303.84064Q273.37317 305.52814 272.59192 306.5594Q271.8263 307.59064 270.5138 307.59064Q269.17004 307.59064 268.3888 306.73126L268.3888 310.29376L267.12317 310.29376L267.12317 300.0594L268.27942 300.0594L268.34192 300.8719Q269.12317 299.91876 270.49817 299.91876Q271.8263 299.91876 272.59192 300.91876Q273.37317 301.91876 273.37317 303.71564L273.37317 303.84064ZM272.10754 303.6844Q272.10754 302.4344 271.5763 301.71564Q271.04504 300.9969 270.10754 300.9969Q268.96692 300.9969 268.3888 302.0125L268.3888 305.54376Q268.96692 306.5594 270.12317 306.5594Q271.04504 306.5594 271.5763 305.84064Q272.10754 305.10626 272.10754 303.6844ZM277.85754 304.77814Q277.85754 304.0594 278.24817 303.46564Q278.65442 302.85626 279.79504 302.0594Q279.12317 301.2469 278.8888 300.7625Q278.67004 300.2625 278.67004 299.77814Q278.67004 298.6375 279.34192 297.9969Q280.0138 297.35626 281.17004 297.35626Q282.18567 297.35626 282.85754 297.96564Q283.52942 298.5594 283.52942 299.46564Q283.52942 300.0594 283.21692 300.575Q282.92004 301.09064 282.15442 301.65314L281.43567 302.1844L283.6388 304.825Q284.10754 303.95 284.10754 302.85626L285.24817 302.85626Q285.24817 304.60626 284.40442 305.7469L285.8263 307.45L284.31067 307.45L283.65442 306.66876Q283.1388 307.1219 282.4513 307.35626Q281.77942 307.59064 281.0763 307.59064Q279.62317 307.59064 278.73254 306.825Q277.85754 306.04376 277.85754 304.77814ZM281.0763 306.5594Q282.09192 306.5594 282.92004 305.79376L280.49817 302.8875L280.2638 303.04376Q279.12317 303.8875 279.12317 304.77814Q279.12317 305.59064 279.6388 306.075Q280.17004 306.5594 281.0763 306.5594ZM279.93567 299.73126Q279.93567 300.3875 280.74817 301.3719L281.54504 300.8094Q282.0138 300.48126 282.18567 300.1844Q282.35754 299.8875 282.35754 299.46564Q282.35754 299.0125 282.0138 298.71564Q281.67004 298.40314 281.15442 298.40314Q280.59192 298.40314 280.2638 298.77814Q279.93567 299.15314 279.93567 299.73126ZM295.9513 302.85626L291.6388 302.85626L291.6388 306.3719L296.65442 306.3719L296.65442 307.45L290.3263 307.45L290.3263 297.4969L296.5763 297.4969L296.5763 298.575L291.6388 298.575L291.6388 301.77814L295.9513 301.77814L295.9513 302.85626ZM301.09192 306.5594Q301.7638 306.5594 302.2638 306.15314Q302.77942 305.73126 302.84192 305.1219L304.02942 305.1219Q303.99817 305.7469 303.59192 306.325Q303.18567 306.90314 302.5138 307.2469Q301.84192 307.59064 301.09192 307.59064Q299.5763 307.59064 298.68567 306.59064Q297.79504 305.575 297.79504 303.825L297.79504 303.60626Q297.79504 302.52814 298.18567 301.6844Q298.59192 300.84064 299.3263 300.3875Q300.0763 299.91876 301.09192 299.91876Q302.3263 299.91876 303.15442 300.66876Q303.98254 301.40314 304.02942 302.59064L302.84192 302.59064Q302.77942 301.8719 302.29504 301.41876Q301.81067 300.95 301.09192 300.95Q300.12317 300.95 299.59192 301.65314Q299.06067 302.34064 299.06067 303.65314L299.06067 303.8875Q299.06067 305.16876 299.59192 305.8719Q300.12317 306.5594 301.09192 306.5594ZM304.79504 303.6844Q304.79504 302.59064 305.21692 301.73126Q305.65442 300.85626 306.40442 300.3875Q307.17004 299.91876 308.15442 299.91876Q309.65442 299.91876 310.59192 300.96564Q311.52942 302.0125 311.52942 303.7469L311.52942 303.84064Q311.52942 304.91876 311.10754 305.77814Q310.7013 306.6219 309.92004 307.10626Q309.15442 307.59064 308.17004 307.59064Q306.65442 307.59064 305.71692 306.54376Q304.79504 305.4969 304.79504 303.77814L304.79504 303.6844ZM306.06067 303.84064Q306.06067 305.0594 306.62317 305.8094Q307.2013 306.5594 308.17004 306.5594Q309.12317 306.5594 309.68567 305.8094Q310.2638 305.04376 310.2638 303.6844Q310.2638 302.46564 309.68567 301.71564Q309.10754 300.95 308.15442 300.95Q307.21692 300.95 306.6388 301.7Q306.06067 302.45 306.06067 303.84064ZM317.43567 305.48126Q317.43567 304.98126 317.04504 304.7Q316.65442 304.40314 315.7013 304.2Q314.74817 303.9969 314.17004 303.71564Q313.60754 303.41876 313.34192 303.02814Q313.0763 302.6375 313.0763 302.09064Q313.0763 301.16876 313.84192 300.54376Q314.60754 299.91876 315.81067 299.91876Q317.06067 299.91876 317.84192 300.575Q318.62317 301.21564 318.62317 302.23126L317.35754 302.23126Q317.35754 301.7 316.92004 301.325Q316.48254 300.95 315.81067 300.95Q315.12317 300.95 314.73254 301.2625Q314.34192 301.5594 314.34192 302.04376Q314.34192 302.4969 314.7013 302.73126Q315.06067 302.96564 315.99817 303.1844Q316.9513 303.3875 317.54504 303.6844Q318.1388 303.98126 318.42004 304.40314Q318.7013 304.8094 318.7013 305.40314Q318.7013 306.3875 317.90442 306.9969Q317.10754 307.59064 315.84192 307.59064Q314.96692 307.59064 314.27942 307.27814Q313.59192 306.95 313.2013 306.3875Q312.8263 305.825 312.8263 305.16876L314.09192 305.16876Q314.12317 305.8094 314.59192 306.1844Q315.0763 306.5594 315.84192 306.5594Q316.56067 306.5594 316.99817 306.2625Q317.43567 305.96564 317.43567 305.48126ZM322.54504 305.59064L324.2638 300.0594L325.62317 300.0594L322.65442 308.59064Q321.96692 310.4344 320.4513 310.4344L320.21692 310.41876L319.74817 310.325L319.74817 309.3094L320.09192 309.325Q320.73254 309.325 321.09192 309.0594Q321.4513 308.8094 321.68567 308.1219L321.96692 307.3719L319.3263 300.0594L320.7013 300.0594L322.54504 305.59064ZM331.43567 305.48126Q331.43567 304.98126 331.04504 304.7Q330.65442 304.40314 329.7013 304.2Q328.74817 303.9969 328.17004 303.71564Q327.60754 303.41876 327.34192 303.02814Q327.0763 302.6375 327.0763 302.09064Q327.0763 301.16876 327.84192 300.54376Q328.60754 299.91876 329.81067 299.91876Q331.06067 299.91876 331.84192 300.575Q332.62317 301.21564 332.62317 302.23126L331.35754 302.23126Q331.35754 301.7 330.92004 301.325Q330.48254 300.95 329.81067 300.95Q329.12317 300.95 328.73254 301.2625Q328.34192 301.5594 328.34192 302.04376Q328.34192 302.4969 328.7013 302.73126Q329.06067 302.96564 329.99817 303.1844Q330.9513 303.3875 331.54504 303.6844Q332.1388 303.98126 332.42004 304.40314Q332.7013 304.8094 332.7013 305.40314Q332.7013 306.3875 331.90442 306.9969Q331.10754 307.59064 329.84192 307.59064Q328.96692 307.59064 328.27942 307.27814Q327.59192 306.95 327.2013 306.3875Q326.8263 305.825 326.8263 305.16876L328.09192 305.16876Q328.12317 305.8094 328.59192 306.1844Q329.0763 306.5594 329.84192 306.5594Q330.56067 306.5594 330.99817 306.2625Q331.43567 305.96564 331.43567 305.48126ZM335.84192 298.2625L335.84192 300.0594L337.21692 300.0594L337.21692 301.02814L335.84192 301.02814L335.84192 305.6219Q335.84192 306.0594 336.02942 306.29376Q336.21692 306.5125 336.65442 306.5125Q336.87317 306.5125 337.2638 306.41876L337.2638 307.45Q336.7638 307.59064 336.29504 307.59064Q335.43567 307.59064 334.99817 307.075Q334.5763 306.5594 334.5763 305.6219L334.5763 301.02814L333.23254 301.02814L333.23254 300.0594L334.5763 300.0594L334.5763 298.2625L335.84192 298.2625ZM342.2013 307.59064Q340.68567 307.59064 339.74817 306.60626Q338.81067 305.60626 338.81067 303.95L338.81067 303.73126Q338.81067 302.6219 339.23254 301.7625Q339.65442 300.8875 340.40442 300.40314Q341.15442 299.91876 342.04504 299.91876Q343.48254 299.91876 344.27942 300.8719Q345.0763 301.8094 345.0763 303.59064L345.0763 304.10626L340.0763 304.10626Q340.09192 305.2 340.7013 305.8875Q341.3263 306.5594 342.2638 306.5594Q342.93567 306.5594 343.3888 306.29376Q343.85754 306.0125 344.21692 305.5594L344.98254 306.15314Q344.06067 307.59064 342.2013 307.59064ZM342.04504 300.95Q341.27942 300.95 340.74817 301.5125Q340.23254 302.075 340.10754 303.075L343.81067 303.075L343.81067 302.98126Q343.7638 302.0125 343.29504 301.48126Q342.8263 300.95 342.04504 300.95ZM347.31067 300.0594L347.35754 300.8719Q348.17004 299.91876 349.54504 299.91876Q351.09192 299.91876 351.65442 301.10626Q352.02942 300.575 352.62317 300.2469Q353.21692 299.91876 354.0138 299.91876Q356.4513 299.91876 356.49817 302.4969L356.49817 307.45L355.23254 307.45L355.23254 302.575Q355.23254 301.77814 354.85754 301.3875Q354.49817 300.9969 353.65442 300.9969Q352.93567 300.9969 352.46692 301.41876Q352.0138 301.825 351.93567 302.54376L351.93567 307.45L350.67004 307.45L350.67004 302.60626Q350.67004 300.9969 349.09192 300.9969Q347.84192 300.9969 347.3888 302.04376L347.3888 307.45L346.12317 307.45L346.12317 300.0594L347.31067 300.0594Z" fill-rule="nonzero"/><path fill="#fbbc04" d="M385.17004 302.95C385.17004 306.2637 382.48376 308.95 379.17004 308.95C375.85635 308.95 373.17004 306.2637 373.17004 302.95C373.17004 299.6363 375.85635 296.95 379.17004 296.95C382.48376 296.95 385.17004 299.6363 385.17004 302.95Z" fill-rule="nonzero"/><path fill="#1a1a1a" d="M401.2013 298.575L397.99817 298.575L397.99817 307.45L396.7013 307.45L396.7013 298.575L393.49817 298.575L393.49817 297.4969L401.2013 297.4969L401.2013 298.575ZM405.2013 307.59064Q403.68567 307.59064 402.74817 306.60626Q401.81067 305.60626 401.81067 303.95L401.81067 303.73126Q401.81067 302.6219 402.23254 301.7625Q402.65442 300.8875 403.40442 300.40314Q404.15442 299.91876 405.04504 299.91876Q406.48254 299.91876 407.27942 300.8719Q408.0763 301.8094 408.0763 303.59064L408.0763 304.10626L403.0763 304.10626Q403.09192 305.2 403.7013 305.8875Q404.3263 306.5594 405.2638 306.5594Q405.93567 306.5594 406.3888 306.29376Q406.85754 306.0125 407.21692 305.5594L407.98254 306.15314Q407.06067 307.59064 405.2013 307.59064ZM405.04504 300.95Q404.27942 300.95 403.74817 301.5125Q403.23254 302.075 403.10754 303.075L406.81067 303.075L406.81067 302.98126Q406.7638 302.0125 406.29504 301.48126Q405.8263 300.95 405.04504 300.95ZM413.7013 307.45Q413.59192 307.23126 413.5138 306.66876Q412.6388 307.59064 411.40442 307.59064Q410.31067 307.59064 409.60754 306.98126Q408.92004 306.35626 408.92004 305.40314Q408.92004 304.2469 409.79504 303.60626Q410.67004 302.96564 412.2638 302.96564L413.49817 302.96564L413.49817 302.3875Q413.49817 301.71564 413.09192 301.325Q412.7013 300.9344 411.93567 300.9344Q411.24817 300.9344 410.79504 301.27814Q410.34192 301.6219 410.34192 302.10626L409.06067 302.10626Q409.06067 301.54376 409.4513 301.02814Q409.85754 300.5125 410.52942 300.21564Q411.2013 299.91876 411.99817 299.91876Q413.27942 299.91876 413.99817 300.5594Q414.73254 301.2 414.7638 302.3094L414.7638 305.71564Q414.7638 306.73126 415.0138 307.34064L415.0138 307.45L413.7013 307.45ZM411.59192 306.48126Q412.18567 306.48126 412.71692 306.1844Q413.2638 305.8719 413.49817 305.3719L413.49817 303.85626L412.49817 303.85626Q410.18567 303.85626 410.18567 305.21564Q410.18567 305.8094 410.5763 306.15314Q410.96692 306.48126 411.59192 306.48126ZM418.31067 300.0594L418.35754 300.8719Q419.17004 299.91876 420.54504 299.91876Q422.09192 299.91876 422.65442 301.10626Q423.02942 300.575 423.62317 300.2469Q424.21692 299.91876 425.0138 299.91876Q427.4513 299.91876 427.49817 302.4969L427.49817 307.45L426.23254 307.45L426.23254 302.575Q426.23254 301.77814 425.85754 301.3875Q425.49817 300.9969 424.65442 300.9969Q423.93567 300.9969 423.46692 301.41876Q423.0138 301.825 422.93567 302.54376L422.93567 307.45L421.67004 307.45L421.67004 302.60626Q421.67004 300.9969 420.09192 300.9969Q418.84192 300.9969 418.3888 302.04376L418.3888 307.45L417.12317 307.45L417.12317 300.0594L418.31067 300.0594ZM432.0763 303.40314Q432.0763 301.8719 432.48254 300.45Q432.90442 299.02814 433.71692 297.8719Q434.54504 296.7 435.43567 296.21564L435.68567 297.0594Q434.68567 297.825 434.04504 299.40314Q433.42004 300.96564 433.35754 302.90314L433.34192 303.4969Q433.34192 306.1375 434.31067 308.075Q434.8888 309.23126 435.68567 309.8875L435.43567 310.66876Q434.5138 310.15314 433.68567 308.96564Q432.0763 306.6375 432.0763 303.40314ZM441.15442 307.45L439.8888 307.45L439.8888 299.02814L437.3263 299.95L437.3263 298.8094L440.9513 297.45L441.15442 297.45L441.15442 307.45ZM450.7638 303.73126L447.42004 303.73126L447.42004 302.7L450.7638 302.7L450.7638 303.73126ZM455.5763 302.46564L456.09192 297.4969L461.18567 297.4969L461.18567 298.66876L457.15442 298.66876L456.85754 301.3719Q457.59192 300.95 458.5138 300.95Q459.87317 300.95 460.67004 301.85626Q461.48254 302.7469 461.48254 304.27814Q461.48254 305.8094 460.6388 306.7Q459.81067 307.59064 458.3263 307.59064Q457.0138 307.59064 456.17004 306.85626Q455.34192 306.1219 455.21692 304.825L456.42004 304.825Q456.52942 305.6844 457.0138 306.1219Q457.5138 306.5594 458.3263 306.5594Q459.2013 306.5594 459.7013 305.96564Q460.21692 305.35626 460.21692 304.29376Q460.21692 303.29376 459.67004 302.7Q459.12317 302.09064 458.21692 302.09064Q457.40442 302.09064 456.92004 302.45L456.59192 302.71564L455.5763 302.46564ZM469.35754 302.4969L471.9513 297.4969L473.4513 297.4969L470.0138 303.73126L470.0138 307.45L468.7013 307.45L468.7013 303.73126L465.27942 297.4969L466.77942 297.4969L469.35754 302.4969ZM477.2013 307.59064Q475.68567 307.59064 474.74817 306.60626Q473.81067 305.60626 473.81067 303.95L473.81067 303.73126Q473.81067 302.6219 474.23254 301.7625Q474.65442 300.8875 475.40442 300.40314Q476.15442 299.91876 477.04504 299.91876Q478.48254 299.91876 479.27942 300.8719Q480.0763 301.8094 480.0763 303.59064L480.0763 304.10626L475.0763 304.10626Q475.09192 305.2 475.7013 305.8875Q476.3263 306.5594 477.2638 306.5594Q477.93567 306.5594 478.3888 306.29376Q478.85754 306.0125 479.21692 305.5594L479.98254 306.15314Q479.06067 307.59064 477.2013 307.59064ZM477.04504 300.95Q476.27942 300.95 475.74817 301.5125Q475.23254 302.075 475.10754 303.075L478.81067 303.075L478.81067 302.98126Q478.7638 302.0125 478.29504 301.48126Q477.8263 300.95 477.04504 300.95ZM485.7013 307.45Q485.59192 307.23126 485.5138 306.66876Q484.6388 307.59064 483.40442 307.59064Q482.31067 307.59064 481.60754 306.98126Q480.92004 306.35626 480.92004 305.40314Q480.92004 304.2469 481.79504 303.60626Q482.67004 302.96564 484.2638 302.96564L485.49817 302.96564L485.49817 302.3875Q485.49817 301.71564 485.09192 301.325Q484.7013 300.9344 483.93567 300.9344Q483.24817 300.9344 482.79504 301.27814Q482.34192 301.6219 482.34192 302.10626L481.06067 302.10626Q481.06067 301.54376 481.4513 301.02814Q481.85754 300.5125 482.52942 300.21564Q483.2013 299.91876 483.99817 299.91876Q485.27942 299.91876 485.99817 300.5594Q486.73254 301.2 486.7638 302.3094L486.7638 305.71564Q486.7638 306.73126 487.0138 307.34064L487.0138 307.45L485.7013 307.45ZM483.59192 306.48126Q484.18567 306.48126 484.71692 306.1844Q485.2638 305.8719 485.49817 305.3719L485.49817 303.85626L484.49817 303.85626Q482.18567 303.85626 482.18567 305.21564Q482.18567 305.8094 482.5763 306.15314Q482.96692 306.48126 483.59192 306.48126ZM492.7013 301.1844Q492.42004 301.1375 492.0763 301.1375Q490.84192 301.1375 490.3888 302.2L490.3888 307.45L489.12317 307.45L489.12317 300.0594L490.35754 300.0594L490.37317 300.90314Q490.99817 299.91876 492.1388 299.91876Q492.5138 299.91876 492.7013 300.0125L492.7013 301.1844ZM498.6388 306.3719L503.35754 306.3719L503.35754 307.45L497.3263 307.45L497.3263 297.4969L498.6388 297.4969L498.6388 306.3719ZM504.79504 303.6844Q504.79504 302.59064 505.21692 301.73126Q505.65442 300.85626 506.40442 300.3875Q507.17004 299.91876 508.15442 299.91876Q509.65442 299.91876 510.59192 300.96564Q511.52942 302.0125 511.52942 303.7469L511.52942 303.84064Q511.52942 304.91876 511.10754 305.77814Q510.7013 306.6219 509.92004 307.10626Q509.15442 307.59064 508.17004 307.59064Q506.65442 307.59064 505.71692 306.54376Q504.79504 305.4969 504.79504 303.77814L504.79504 303.6844ZM506.06067 303.84064Q506.06067 305.0594 506.62317 305.8094Q507.2013 306.5594 508.17004 306.5594Q509.12317 306.5594 509.68567 305.8094Q510.2638 305.04376 510.2638 303.6844Q510.2638 302.46564 509.68567 301.71564Q509.10754 300.95 508.15442 300.95Q507.21692 300.95 506.6388 301.7Q506.06067 302.45 506.06067 303.84064ZM516.0919 306.5594Q516.7638 306.5594 517.2638 306.15314Q517.7794 305.73126 517.8419 305.1219L519.0294 305.1219Q518.99817 305.7469 518.5919 306.325Q518.18567 306.90314 517.5138 307.2469Q516.8419 307.59064 516.0919 307.59064Q514.5763 307.59064 513.68567 306.59064Q512.79504 305.575 512.79504 303.825L512.79504 303.60626Q512.79504 302.52814 513.18567 301.6844Q513.5919 300.84064 514.3263 300.3875Q515.0763 299.91876 516.0919 299.91876Q517.3263 299.91876 518.1544 300.66876Q518.98254 301.40314 519.0294 302.59064L517.8419 302.59064Q517.7794 301.8719 517.29504 301.41876Q516.81067 300.95 516.0919 300.95Q515.12317 300.95 514.5919 301.65314Q514.06067 302.34064 514.06067 303.65314L514.06067 303.8875Q514.06067 305.16876 514.5919 305.8719Q515.12317 306.5594 516.0919 306.5594ZM522.18567 304.02814L521.4044 304.85626L521.4044 307.45L520.1388 307.45L520.1388 296.95L521.4044 296.95L521.4044 303.29376L522.0763 302.48126L524.37317 300.0594L525.92004 300.0594L523.04504 303.1375L526.24817 307.45L524.7638 307.45L522.18567 304.02814ZM531.7013 306.71564Q530.9513 307.59064 529.5294 307.59064Q528.3419 307.59064 527.7169 306.90314Q527.10754 306.21564 527.10754 304.8719L527.10754 300.0594L528.35754 300.0594L528.35754 304.825Q528.35754 306.5125 529.73254 306.5125Q531.18567 306.5125 531.6544 305.4344L531.6544 300.0594L532.92004 300.0594L532.92004 307.45L531.7169 307.45L531.7013 306.71564ZM541.37317 303.84064Q541.37317 305.52814 540.5919 306.5594Q539.8263 307.59064 538.5138 307.59064Q537.17004 307.59064 536.3888 306.73126L536.3888 310.29376L535.12317 310.29376L535.12317 300.0594L536.2794 300.0594L536.3419 300.8719Q537.12317 299.91876 538.49817 299.91876Q539.8263 299.91876 540.5919 300.91876Q541.37317 301.91876 541.37317 303.71564L541.37317 303.84064ZM540.10754 303.6844Q540.10754 302.4344 539.5763 301.71564Q539.04504 300.9969 538.10754 300.9969Q536.9669 300.9969 536.3888 302.0125L536.3888 305.54376Q536.9669 306.5594 538.12317 306.5594Q539.04504 306.5594 539.5763 305.84064Q540.10754 305.10626 540.10754 303.6844ZM546.04504 303.48126Q546.04504 304.9969 545.6388 306.40314Q545.24817 307.79376 544.42004 308.98126Q543.5919 310.16876 542.7013 310.66876L542.43567 309.8875Q543.48254 309.09064 544.12317 307.3875Q544.7638 305.6844 544.7794 303.6219L544.7794 303.40314Q544.7794 301.96564 544.4669 300.73126Q544.17004 299.4969 543.6388 298.52814Q543.10754 297.54376 542.43567 296.9969L542.7013 296.21564Q543.5919 296.71564 544.4044 297.8875Q545.23254 299.0594 545.6388 300.46564Q546.04504 301.8719 546.04504 303.48126Z" fill-rule="nonzero"/><path fill="#34a853" d="M70.17005 323.95C70.17005 327.2637 67.48376 329.95 64.17005 329.95C60.856342 329.95 58.17005 327.2637 58.17005 323.95C58.17005 320.6363 60.856342 317.95 64.17005 317.95C67.48376 317.95 70.17005 320.6363 70.17005 323.95Z" fill-rule="nonzero"/><path fill="#1a1a1a" d="M80.6388 327.3719L85.35755 327.3719L85.35755 328.45L79.3263 328.45L79.3263 318.4969L80.6388 318.4969L80.6388 327.3719ZM88.49818 328.45L87.23255 328.45L87.23255 321.0594L88.49818 321.0594L88.49818 328.45ZM87.1388 319.09064Q87.1388 318.77814 87.3263 318.575Q87.5138 318.35626 87.87318 318.35626Q88.24818 318.35626 88.43568 318.575Q88.6388 318.77814 88.6388 319.09064Q88.6388 319.40314 88.43568 319.60626Q88.24818 319.8094 87.87318 319.8094Q87.5138 319.8094 87.3263 319.60626Q87.1388 319.40314 87.1388 319.09064ZM89.8263 324.6844Q89.8263 322.95 90.62318 321.9344Q91.42005 320.91876 92.7638 320.91876Q94.0763 320.91876 94.84193 321.79376L94.8888 321.0594L96.06068 321.0594L96.06068 331.29376L94.79505 331.29376L94.79505 327.7625Q94.02943 328.59064 92.74818 328.59064Q91.42005 328.59064 90.62318 327.54376Q89.8263 326.4969 89.8263 324.77814L89.8263 324.6844ZM91.09193 324.84064Q91.09193 326.10626 91.62318 326.84064Q92.15443 327.5594 93.06068 327.5594Q94.2013 327.5594 94.79505 326.5594L94.79505 322.9344Q94.18568 321.95 93.0763 321.95Q92.17005 321.95 91.62318 322.6844Q91.09193 323.41876 91.09193 324.84064ZM102.7013 327.71564Q101.9513 328.59064 100.52943 328.59064Q99.34193 328.59064 98.71693 327.90314Q98.10755 327.21564 98.10755 325.8719L98.10755 321.0594L99.35755 321.0594L99.35755 325.825Q99.35755 327.5125 100.73255 327.5125Q102.18568 327.5125 102.65443 326.4344L102.65443 321.0594L103.92005 321.0594L103.92005 328.45L102.71693 328.45L102.7013 327.71564ZM107.49818 328.45L106.23255 328.45L106.23255 321.0594L107.49818 321.0594L107.49818 328.45ZM106.1388 319.09064Q106.1388 318.77814 106.3263 318.575Q106.5138 318.35626 106.87318 318.35626Q107.24818 318.35626 107.43568 318.575Q107.6388 318.77814 107.6388 319.09064Q107.6388 319.40314 107.43568 319.60626Q107.24818 319.8094 106.87318 319.8094Q106.5138 319.8094 106.3263 319.60626Q106.1388 319.40314 106.1388 319.09064ZM108.8263 324.6844Q108.8263 322.98126 109.62318 321.95Q110.43568 320.91876 111.73255 320.91876Q113.04505 320.91876 113.79505 321.8094L113.79505 317.95L115.06068 317.95L115.06068 328.45L113.90443 328.45L113.84193 327.65314Q113.0763 328.59064 111.73255 328.59064Q110.43568 328.59064 109.62318 327.54376Q108.8263 326.48126 108.8263 324.77814L108.8263 324.6844ZM110.09193 324.84064Q110.09193 326.09064 110.60755 326.8094Q111.12318 327.5125 112.04505 327.5125Q113.24818 327.5125 113.79505 326.4344L113.79505 323.02814Q113.23255 321.9969 112.06068 321.9969Q111.12318 321.9969 110.60755 322.71564Q110.09193 323.41876 110.09193 324.84064ZM118.49818 328.45L117.23255 328.45L117.23255 321.0594L118.49818 321.0594L118.49818 328.45ZM117.1388 319.09064Q117.1388 318.77814 117.3263 318.575Q117.5138 318.35626 117.87318 318.35626Q118.24818 318.35626 118.43568 318.575Q118.6388 318.77814 118.6388 319.09064Q118.6388 319.40314 118.43568 319.60626Q118.24818 319.8094 117.87318 319.8094Q117.5138 319.8094 117.3263 319.60626Q117.1388 319.40314 117.1388 319.09064ZM121.84193 319.2625L121.84193 321.0594L123.21693 321.0594L123.21693 322.02814L121.84193 322.02814L121.84193 326.6219Q121.84193 327.0594 122.02943 327.29376Q122.21693 327.5125 122.65443 327.5125Q122.87318 327.5125 123.2638 327.41876L123.2638 328.45Q122.7638 328.59064 122.29505 328.59064Q121.43568 328.59064 120.99818 328.075Q120.5763 327.5594 120.5763 326.6219L120.5763 322.02814L119.23255 322.02814L119.23255 321.0594L120.5763 321.0594L120.5763 319.2625L121.84193 319.2625ZM127.54505 326.59064L129.2638 321.0594L130.62317 321.0594L127.65443 329.59064Q126.96693 331.4344 125.4513 331.4344L125.21693 331.41876L124.74818 331.325L124.74818 330.3094L125.09193 330.325Q125.73255 330.325 126.09193 330.0594Q126.4513 329.8094 126.68568 329.1219L126.96693 328.3719L124.3263 321.0594L125.7013 321.0594L127.54505 326.59064Z" fill-rule="nonzero"/><path fill="#ff6d01" d="M159.17006 323.95C159.17006 327.2637 156.48376 329.95 153.17006 329.95C149.85634 329.95 147.17006 327.2637 147.17006 323.95C147.17006 320.6363 149.85634 317.95 153.17006 317.95C156.48376 317.95 159.17006 320.6363 159.17006 323.95Z" fill-rule="nonzero"/><path fill="#1a1a1a" d="M175.65443 325.29376Q175.46693 326.8719 174.48256 327.73126Q173.49818 328.59064 171.87318 328.59064Q170.10756 328.59064 169.04506 327.325Q167.98256 326.0594 167.98256 323.9344L167.98256 322.98126Q167.98256 321.59064 168.48256 320.54376Q168.98256 319.48126 169.88881 318.91876Q170.79506 318.35626 171.98256 318.35626Q173.57631 318.35626 174.52943 319.2469Q175.48256 320.1375 175.65443 321.7L174.32631 321.7Q174.15443 320.5125 173.57631 319.98126Q173.01381 319.4344 171.98256 319.4344Q170.73256 319.4344 170.01381 320.3719Q169.31068 321.29376 169.31068 323.0125L169.31068 323.98126Q169.31068 325.60626 169.98256 326.5594Q170.65443 327.5125 171.87318 327.5125Q172.96693 327.5125 173.54506 327.02814Q174.13881 326.52814 174.32631 325.29376L175.65443 325.29376ZM176.79506 324.6844Q176.79506 323.59064 177.21693 322.73126Q177.65443 321.85626 178.40443 321.3875Q179.17006 320.91876 180.15443 320.91876Q181.65443 320.91876 182.59193 321.96564Q183.52943 323.0125 183.52943 324.7469L183.52943 324.84064Q183.52943 325.91876 183.10756 326.77814Q182.70131 327.6219 181.92006 328.10626Q181.15443 328.59064 180.17006 328.59064Q178.65443 328.59064 177.71693 327.54376Q176.79506 326.4969 176.79506 324.77814L176.79506 324.6844ZM178.06068 324.84064Q178.06068 326.0594 178.62318 326.8094Q179.20131 327.5594 180.17006 327.5594Q181.12318 327.5594 181.68568 326.8094Q182.26381 326.04376 182.26381 324.6844Q182.26381 323.46564 181.68568 322.71564Q181.10756 321.95 180.15443 321.95Q179.21693 321.95 178.63881 322.7Q178.06068 323.45 178.06068 324.84064ZM186.31068 321.0594L186.35756 321.8719Q187.17006 320.91876 188.54506 320.91876Q190.09193 320.91876 190.65443 322.10626Q191.02943 321.575 191.62318 321.2469Q192.21693 320.91876 193.01381 320.91876Q195.45131 320.91876 195.49818 323.4969L195.49818 328.45L194.23256 328.45L194.23256 323.575Q194.23256 322.77814 193.85756 322.3875Q193.49818 321.9969 192.65443 321.9969Q191.93568 321.9969 191.46693 322.41876Q191.01381 322.825 190.93568 323.54376L190.93568 328.45L189.67006 328.45L189.67006 323.60626Q189.67006 321.9969 188.09193 321.9969Q186.84193 321.9969 186.38881 323.04376L186.38881 328.45L185.12318 328.45L185.12318 321.0594L186.31068 321.0594ZM198.31068 321.0594L198.35756 321.8719Q199.17006 320.91876 200.54506 320.91876Q202.09193 320.91876 202.65443 322.10626Q203.02943 321.575 203.62318 321.2469Q204.21693 320.91876 205.01381 320.91876Q207.45131 320.91876 207.49818 323.4969L207.49818 328.45L206.23256 328.45L206.23256 323.575Q206.23256 322.77814 205.85756 322.3875Q205.49818 321.9969 204.65443 321.9969Q203.93568 321.9969 203.46693 322.41876Q203.01381 322.825 202.93568 323.54376L202.93568 328.45L201.67006 328.45L201.67006 323.60626Q201.67006 321.9969 200.09193 321.9969Q198.84193 321.9969 198.38881 323.04376L198.38881 328.45L197.12318 328.45L197.12318 321.0594L198.31068 321.0594ZM213.70131 327.71564Q212.95131 328.59064 211.52943 328.59064Q210.34193 328.59064 209.71693 327.90314Q209.10756 327.21564 209.10756 325.8719L209.10756 321.0594L210.35756 321.0594L210.35756 325.825Q210.35756 327.5125 211.73256 327.5125Q213.18568 327.5125 213.65443 326.4344L213.65443 321.0594L214.92006 321.0594L214.92006 328.45L213.71693 328.45L213.70131 327.71564ZM218.32631 321.0594L218.35756 321.98126Q219.21693 320.91876 220.57631 320.91876Q222.92006 320.91876 222.95131 323.5594L222.95131 328.45L221.68568 328.45L221.68568 323.5594Q221.67006 322.7625 221.31068 322.3875Q220.95131 321.9969 220.20131 321.9969Q219.57631 321.9969 219.10756 322.325Q218.65443 322.65314 218.38881 323.1844L218.38881 328.45L217.12318 328.45L217.12318 321.0594L218.32631 321.0594ZM226.49818 328.45L225.23256 328.45L225.23256 321.0594L226.49818 321.0594L226.49818 328.45ZM225.13881 319.09064Q225.13881 318.77814 225.32631 318.575Q225.51381 318.35626 225.87318 318.35626Q226.24818 318.35626 226.43568 318.575Q226.63881 318.77814 226.63881 319.09064Q226.63881 319.40314 226.43568 319.60626Q226.24818 319.8094 225.87318 319.8094Q225.51381 319.8094 225.32631 319.60626Q225.13881 319.40314 225.13881 319.09064ZM229.84193 319.2625L229.84193 321.0594L231.21693 321.0594L231.21693 322.02814L229.84193 322.02814L229.84193 326.6219Q229.84193 327.0594 230.02943 327.29376Q230.21693 327.5125 230.65443 327.5125Q230.87318 327.5125 231.26381 327.41876L231.26381 328.45Q230.76381 328.59064 230.29506 328.59064Q229.43568 328.59064 228.99818 328.075Q228.57631 327.5594 228.57631 326.6219L228.57631 322.02814L227.23256 322.02814L227.23256 321.0594L228.57631 321.0594L228.57631 319.2625L229.84193 319.2625ZM235.54506 326.59064L237.26381 321.0594L238.62318 321.0594L235.65443 329.59064Q234.96693 331.4344 233.45131 331.4344L233.21693 331.41876L232.74818 331.325L232.74818 330.3094L233.09193 330.325Q233.73256 330.325 234.09193 330.0594Q234.45131 329.8094 234.68568 329.1219L234.96693 328.3719L232.32631 321.0594L233.70131 321.0594L235.54506 326.59064ZM242.85756 325.77814Q242.85756 325.0594 243.24818 324.46564Q243.65443 323.85626 244.79506 323.0594Q244.12318 322.2469 243.88881 321.7625Q243.67006 321.2625 243.67006 320.77814Q243.67006 319.6375 244.34193 318.9969Q245.01381 318.35626 246.17006 318.35626Q247.18568 318.35626 247.85756 318.96564Q248.52943 319.5594 248.52943 320.46564Q248.52943 321.0594 248.21693 321.575Q247.92006 322.09064 247.15443 322.65314L246.43568 323.1844L248.63881 325.825Q249.10756 324.95 249.10756 323.85626L250.24818 323.85626Q250.24818 325.60626 249.40443 326.7469L250.82631 328.45L249.31068 328.45L248.65443 327.66876Q248.13881 328.1219 247.45131 328.35626Q246.77943 328.59064 246.07631 328.59064Q244.62318 328.59064 243.73256 327.825Q242.85756 327.04376 242.85756 325.77814ZM246.07631 327.5594Q247.09193 327.5594 247.92006 326.79376L245.49818 323.8875L245.26381 324.04376Q244.12318 324.8875 244.12318 325.77814Q244.12318 326.59064 244.63881 327.075Q245.17006 327.5594 246.07631 327.5594ZM244.93568 320.73126Q244.93568 321.3875 245.74818 322.3719L246.54506 321.8094Q247.01381 321.48126 247.18568 321.1844Q247.35756 320.8875 247.35756 320.46564Q247.35756 320.0125 247.01381 319.71564Q246.67006 319.40314 246.15443 319.40314Q245.59193 319.40314 245.26381 319.77814Q244.93568 320.15314 244.93568 320.73126ZM258.2638 324.0125Q256.5763 323.52814 255.79506 322.825Q255.02943 322.10626 255.02943 321.075Q255.02943 319.90314 255.96693 319.1375Q256.90442 318.35626 258.42004 318.35626Q259.43567 318.35626 260.23254 318.7625Q261.04504 319.15314 261.48254 319.85626Q261.93567 320.54376 261.93567 321.3719L260.60754 321.3719Q260.60754 320.46564 260.02942 319.95Q259.46692 319.4344 258.42004 319.4344Q257.4513 319.4344 256.90442 319.8719Q256.35754 320.29376 256.35754 321.0594Q256.35754 321.66876 256.87317 322.09064Q257.3888 322.4969 258.62317 322.85626Q259.87317 323.2 260.5763 323.6219Q261.27942 324.04376 261.60754 324.60626Q261.9513 325.16876 261.9513 325.91876Q261.9513 327.1375 260.99817 327.8719Q260.06067 328.59064 258.48254 328.59064Q257.4513 328.59064 256.56067 328.2Q255.68568 327.79376 255.20131 327.1219Q254.71693 326.4344 254.71693 325.5594L256.02942 325.5594Q256.02942 326.46564 256.7013 326.9969Q257.37317 327.5125 258.48254 327.5125Q259.52942 327.5125 260.0763 327.09064Q260.62317 326.66876 260.62317 325.9344Q260.62317 325.2 260.10754 324.8094Q259.60754 324.40314 258.2638 324.0125ZM266.2013 328.59064Q264.68567 328.59064 263.74817 327.60626Q262.81067 326.60626 262.81067 324.95L262.81067 324.73126Q262.81067 323.6219 263.23254 322.7625Q263.65442 321.8875 264.40442 321.40314Q265.15442 320.91876 266.04504 320.91876Q267.48254 320.91876 268.27942 321.8719Q269.0763 322.8094 269.0763 324.59064L269.0763 325.10626L264.0763 325.10626Q264.09192 326.2 264.7013 326.8875Q265.3263 327.5594 266.2638 327.5594Q266.93567 327.5594 267.3888 327.29376Q267.85754 327.0125 268.21692 326.5594L268.98254 327.15314Q268.06067 328.59064 266.2013 328.59064ZM266.04504 321.95Q265.27942 321.95 264.74817 322.5125Q264.23254 323.075 264.10754 324.075L267.81067 324.075L267.81067 323.98126Q267.7638 323.0125 267.29504 322.48126Q266.8263 321.95 266.04504 321.95ZM273.2013 328.59064Q271.68567 328.59064 270.74817 327.60626Q269.81067 326.60626 269.81067 324.95L269.81067 324.73126Q269.81067 323.6219 270.23254 322.7625Q270.65442 321.8875 271.40442 321.40314Q272.15442 320.91876 273.04504 320.91876Q274.48254 320.91876 275.27942 321.8719Q276.0763 322.8094 276.0763 324.59064L276.0763 325.10626L271.0763 325.10626Q271.09192 326.2 271.7013 326.8875Q272.3263 327.5594 273.2638 327.5594Q273.93567 327.5594 274.3888 327.29376Q274.85754 327.0125 275.21692 326.5594L275.98254 327.15314Q275.06067 328.59064 273.2013 328.59064ZM273.04504 321.95Q272.27942 321.95 271.74817 322.5125Q271.23254 323.075 271.10754 324.075L274.81067 324.075L274.81067 323.98126Q274.7638 323.0125 274.29504 322.48126Q273.8263 321.95 273.04504 321.95ZM276.8263 324.6844Q276.8263 322.98126 277.62317 321.95Q278.43567 320.91876 279.73254 320.91876Q281.04504 320.91876 281.79504 321.8094L281.79504 317.95L283.06067 317.95L283.06067 328.45L281.90442 328.45L281.84192 327.65314Q281.0763 328.59064 279.73254 328.59064Q278.43567 328.59064 277.62317 327.54376Q276.8263 326.48126 276.8263 324.77814L276.8263 324.6844ZM278.09192 324.84064Q278.09192 326.09064 278.60754 326.8094Q279.12317 327.5125 280.04504 327.5125Q281.24817 327.5125 281.79504 326.4344L281.79504 323.02814Q281.23254 321.9969 280.06067 321.9969Q279.12317 321.9969 278.60754 322.71564Q278.09192 323.41876 278.09192 324.84064ZM288.74817 328.45L288.74817 322.02814L287.5763 322.02814L287.5763 321.0594L288.74817 321.0594L288.74817 320.29376Q288.74817 319.10626 289.37317 318.46564Q290.0138 317.8094 291.18567 317.8094Q291.62317 317.8094 292.04504 317.91876L291.98254 318.95Q291.65442 318.8875 291.29504 318.8875Q290.68567 318.8875 290.34192 319.2469Q290.0138 319.60626 290.0138 320.27814L290.0138 321.0594L291.59192 321.0594L291.59192 322.02814L290.0138 322.02814L290.0138 328.45L288.74817 328.45ZM297.7013 327.71564Q296.9513 328.59064 295.52942 328.59064Q294.34192 328.59064 293.71692 327.90314Q293.10754 327.21564 293.10754 325.8719L293.10754 321.0594L294.35754 321.0594L294.35754 325.825Q294.35754 327.5125 295.73254 327.5125Q297.18567 327.5125 297.65442 326.4344L297.65442 321.0594L298.92004 321.0594L298.92004 328.45L297.71692 328.45L297.7013 327.71564ZM302.3263 321.0594L302.35754 321.98126Q303.21692 320.91876 304.5763 320.91876Q306.92004 320.91876 306.9513 323.5594L306.9513 328.45L305.68567 328.45L305.68567 323.5594Q305.67004 322.7625 305.31067 322.3875Q304.9513 321.9969 304.2013 321.9969Q303.5763 321.9969 303.10754 322.325Q302.65442 322.65314 302.3888 323.1844L302.3888 328.45L301.12317 328.45L301.12317 321.0594L302.3263 321.0594ZM308.8263 324.6844Q308.8263 322.98126 309.62317 321.95Q310.43567 320.91876 311.73254 320.91876Q313.04504 320.91876 313.79504 321.8094L313.79504 317.95L315.06067 317.95L315.06067 328.45L313.90442 328.45L313.84192 327.65314Q313.0763 328.59064 311.73254 328.59064Q310.43567 328.59064 309.62317 327.54376Q308.8263 326.48126 308.8263 324.77814L308.8263 324.6844ZM310.09192 324.84064Q310.09192 326.09064 310.60754 326.8094Q311.12317 327.5125 312.04504 327.5125Q313.24817 327.5125 313.79504 326.4344L313.79504 323.02814Q313.23254 321.9969 312.06067 321.9969Q311.12317 321.9969 310.60754 322.71564Q310.09192 323.41876 310.09192 324.84064ZM318.49817 328.45L317.23254 328.45L317.23254 321.0594L318.49817 321.0594L318.49817 328.45ZM317.1388 319.09064Q317.1388 318.77814 317.3263 318.575Q317.5138 318.35626 317.87317 318.35626Q318.24817 318.35626 318.43567 318.575Q318.6388 318.77814 318.6388 319.09064Q318.6388 319.40314 318.43567 319.60626Q318.24817 319.8094 317.87317 319.8094Q317.5138 319.8094 317.3263 319.60626Q317.1388 319.40314 317.1388 319.09064ZM321.3263 321.0594L321.35754 321.98126Q322.21692 320.91876 323.5763 320.91876Q325.92004 320.91876 325.9513 323.5594L325.9513 328.45L324.68567 328.45L324.68567 323.5594Q324.67004 322.7625 324.31067 322.3875Q323.9513 321.9969 323.2013 321.9969Q322.5763 321.9969 322.10754 322.325Q321.65442 322.65314 321.3888 323.1844L321.3888 328.45L320.12317 328.45L320.12317 321.0594L321.3263 321.0594ZM327.8263 324.6844Q327.8263 322.96564 328.62317 321.95Q329.42004 320.91876 330.74817 320.91876Q332.09192 320.91876 332.85754 321.8719L332.92004 321.0594L334.0763 321.0594L334.0763 328.27814Q334.0763 329.71564 333.21692 330.52814Q332.37317 331.35626 330.93567 331.35626Q330.1388 331.35626 329.37317 331.0125Q328.60754 330.6844 328.2013 330.09064L328.85754 329.325Q329.67004 330.325 330.84192 330.325Q331.7638 330.325 332.27942 329.8094Q332.81067 329.29376 332.81067 328.34064L332.81067 327.71564Q332.04504 328.59064 330.73254 328.59064Q329.43567 328.59064 328.62317 327.54376Q327.8263 326.4969 327.8263 324.6844ZM329.09192 324.84064Q329.09192 326.09064 329.60754 326.8094Q330.12317 327.5125 331.04504 327.5125Q332.24817 327.5125 332.81067 326.41876L332.81067 323.04376Q332.21692 321.9969 331.06067 321.9969Q330.1388 321.9969 329.60754 322.71564Q329.09192 323.41876 329.09192 324.84064Z" fill-rule="nonzero"/><path fill="#46bdc6" d="M363.17004 323.95C363.17004 327.2637 360.48376 329.95 357.17004 329.95C353.85635 329.95 351.17004 327.2637 351.17004 323.95C351.17004 320.6363 353.85635 317.95 357.17004 317.95C360.48376 317.95 363.17004 320.6363 363.17004 323.95Z" fill-rule="nonzero"/><path fill="#1a1a1a" d="M377.8263 325.85626L373.65442 325.85626L372.71692 328.45L371.35754 328.45L375.17004 318.4969L376.31067 318.4969L380.12317 328.45L378.77942 328.45L377.8263 325.85626ZM374.04504 324.77814L377.43567 324.77814L375.73254 320.1219L374.04504 324.77814ZM380.8263 324.6844Q380.8263 322.98126 381.62317 321.95Q382.43567 320.91876 383.73254 320.91876Q385.04504 320.91876 385.79504 321.8094L385.79504 317.95L387.06067 317.95L387.06067 328.45L385.90442 328.45L385.84192 327.65314Q385.0763 328.59064 383.73254 328.59064Q382.43567 328.59064 381.62317 327.54376Q380.8263 326.48126 380.8263 324.77814L380.8263 324.6844ZM382.09192 324.84064Q382.09192 326.09064 382.60754 326.8094Q383.12317 327.5125 384.04504 327.5125Q385.24817 327.5125 385.79504 326.4344L385.79504 323.02814Q385.23254 321.9969 384.06067 321.9969Q383.12317 321.9969 382.60754 322.71564Q382.09192 323.41876 382.09192 324.84064ZM391.56067 326.73126L393.40442 321.0594L394.68567 321.0594L392.04504 328.45L391.0763 328.45L388.3888 321.0594L389.68567 321.0594L391.56067 326.73126ZM397.49817 328.45L396.23254 328.45L396.23254 321.0594L397.49817 321.0594L397.49817 328.45ZM396.1388 319.09064Q396.1388 318.77814 396.3263 318.575Q396.5138 318.35626 396.87317 318.35626Q397.24817 318.35626 397.43567 318.575Q397.6388 318.77814 397.6388 319.09064Q397.6388 319.40314 397.43567 319.60626Q397.24817 319.8094 396.87317 319.8094Q396.5138 319.8094 396.3263 319.60626Q396.1388 319.40314 396.1388 319.09064ZM403.43567 326.48126Q403.43567 325.98126 403.04504 325.7Q402.65442 325.40314 401.7013 325.2Q400.74817 324.9969 400.17004 324.71564Q399.60754 324.41876 399.34192 324.02814Q399.0763 323.6375 399.0763 323.09064Q399.0763 322.16876 399.84192 321.54376Q400.60754 320.91876 401.81067 320.91876Q403.06067 320.91876 403.84192 321.575Q404.62317 322.21564 404.62317 323.23126L403.35754 323.23126Q403.35754 322.7 402.92004 322.325Q402.48254 321.95 401.81067 321.95Q401.12317 321.95 400.73254 322.2625Q400.34192 322.5594 400.34192 323.04376Q400.34192 323.4969 400.7013 323.73126Q401.06067 323.96564 401.99817 324.1844Q402.9513 324.3875 403.54504 324.6844Q404.1388 324.98126 404.42004 325.40314Q404.7013 325.8094 404.7013 326.40314Q404.7013 327.3875 403.90442 327.9969Q403.10754 328.59064 401.84192 328.59064Q400.96692 328.59064 400.27942 328.27814Q399.59192 327.95 399.2013 327.3875Q398.8263 326.825 398.8263 326.16876L400.09192 326.16876Q400.12317 326.8094 400.59192 327.1844Q401.0763 327.5594 401.84192 327.5594Q402.56067 327.5594 402.99817 327.2625Q403.43567 326.96564 403.43567 326.48126ZM405.79504 324.6844Q405.79504 323.59064 406.21692 322.73126Q406.65442 321.85626 407.40442 321.3875Q408.17004 320.91876 409.15442 320.91876Q410.65442 320.91876 411.59192 321.96564Q412.52942 323.0125 412.52942 324.7469L412.52942 324.84064Q412.52942 325.91876 412.10754 326.77814Q411.7013 327.6219 410.92004 328.10626Q410.15442 328.59064 409.17004 328.59064Q407.65442 328.59064 406.71692 327.54376Q405.79504 326.4969 405.79504 324.77814L405.79504 324.6844ZM407.06067 324.84064Q407.06067 326.0594 407.62317 326.8094Q408.2013 327.5594 409.17004 327.5594Q410.12317 327.5594 410.68567 326.8094Q411.2638 326.04376 411.2638 324.6844Q411.2638 323.46564 410.68567 322.71564Q410.10754 321.95 409.15442 321.95Q408.21692 321.95 407.6388 322.7Q407.06067 323.45 407.06067 324.84064ZM417.7013 322.1844Q417.42004 322.1375 417.0763 322.1375Q415.84192 322.1375 415.3888 323.2L415.3888 328.45L414.12317 328.45L414.12317 321.0594L415.35754 321.0594L415.37317 321.90314Q415.99817 320.91876 417.1388 320.91876Q417.5138 320.91876 417.7013 321.0125L417.7013 322.1844ZM423.43567 326.48126Q423.43567 325.98126 423.04504 325.7Q422.65442 325.40314 421.7013 325.2Q420.74817 324.9969 420.17004 324.71564Q419.60754 324.41876 419.34192 324.02814Q419.0763 323.6375 419.0763 323.09064Q419.0763 322.16876 419.84192 321.54376Q420.60754 320.91876 421.81067 320.91876Q423.06067 320.91876 423.84192 321.575Q424.62317 322.21564 424.62317 323.23126L423.35754 323.23126Q423.35754 322.7 422.92004 322.325Q422.48254 321.95 421.81067 321.95Q421.12317 321.95 420.73254 322.2625Q420.34192 322.5594 420.34192 323.04376Q420.34192 323.4969 420.7013 323.73126Q421.06067 323.96564 421.99817 324.1844Q422.9513 324.3875 423.54504 324.6844Q424.1388 324.98126 424.42004 325.40314Q424.7013 325.8094 424.7013 326.40314Q424.7013 327.3875 423.90442 327.9969Q423.10754 328.59064 421.84192 328.59064Q420.96692 328.59064 420.27942 328.27814Q419.59192 327.95 419.2013 327.3875Q418.8263 326.825 418.8263 326.16876L420.09192 326.16876Q420.12317 326.8094 420.59192 327.1844Q421.0763 327.5594 421.84192 327.5594Q422.56067 327.5594 422.99817 327.2625Q423.43567 326.96564 423.43567 326.48126ZM429.0763 324.40314Q429.0763 322.8719 429.48254 321.45Q429.90442 320.02814 430.71692 318.8719Q431.54504 317.7 432.43567 317.21564L432.68567 318.0594Q431.68567 318.825 431.04504 320.40314Q430.42004 321.96564 430.35754 323.90314L430.34192 324.4969Q430.34192 327.1375 431.31067 329.075Q431.8888 330.23126 432.68567 330.8875L432.43567 331.66876Q431.5138 331.15314 430.68567 329.96564Q429.0763 327.6375 429.0763 324.40314ZM438.15442 328.45L436.8888 328.45L436.8888 320.02814L434.3263 320.95L434.3263 319.8094L437.9513 318.45L438.15442 318.45L438.15442 328.45ZM447.7638 324.73126L444.42004 324.73126L444.42004 323.7L447.7638 323.7L447.7638 324.73126ZM452.5763 323.46564L453.09192 318.4969L458.18567 318.4969L458.18567 319.66876L454.15442 319.66876L453.85754 322.3719Q454.59192 321.95 455.5138 321.95Q456.87317 321.95 457.67004 322.85626Q458.48254 323.7469 458.48254 325.27814Q458.48254 326.8094 457.6388 327.7Q456.81067 328.59064 455.3263 328.59064Q454.0138 328.59064 453.17004 327.85626Q452.34192 327.1219 452.21692 325.825L453.42004 325.825Q453.52942 326.6844 454.0138 327.1219Q454.5138 327.5594 455.3263 327.5594Q456.2013 327.5594 456.7013 326.96564Q457.21692 326.35626 457.21692 325.29376Q457.21692 324.29376 456.67004 323.7Q456.12317 323.09064 455.21692 323.09064Q454.40442 323.09064 453.92004 323.45L453.59192 323.71564L452.5763 323.46564ZM466.35754 323.4969L468.9513 318.4969L470.4513 318.4969L467.0138 324.73126L467.0138 328.45L465.7013 328.45L465.7013 324.73126L462.27942 318.4969L463.77942 318.4969L466.35754 323.4969ZM474.2013 328.59064Q472.68567 328.59064 471.74817 327.60626Q470.81067 326.60626 470.81067 324.95L470.81067 324.73126Q470.81067 323.6219 471.23254 322.7625Q471.65442 321.8875 472.40442 321.40314Q473.15442 320.91876 474.04504 320.91876Q475.48254 320.91876 476.27942 321.8719Q477.0763 322.8094 477.0763 324.59064L477.0763 325.10626L472.0763 325.10626Q472.09192 326.2 472.7013 326.8875Q473.3263 327.5594 474.2638 327.5594Q474.93567 327.5594 475.3888 327.29376Q475.85754 327.0125 476.21692 326.5594L476.98254 327.15314Q476.06067 328.59064 474.2013 328.59064ZM474.04504 321.95Q473.27942 321.95 472.74817 322.5125Q472.23254 323.075 472.10754 324.075L475.81067 324.075L475.81067 323.98126Q475.7638 323.0125 475.29504 322.48126Q474.8263 321.95 474.04504 321.95ZM482.7013 328.45Q482.59192 328.23126 482.5138 327.66876Q481.6388 328.59064 480.40442 328.59064Q479.31067 328.59064 478.60754 327.98126Q477.92004 327.35626 477.92004 326.40314Q477.92004 325.2469 478.79504 324.60626Q479.67004 323.96564 481.2638 323.96564L482.49817 323.96564L482.49817 323.3875Q482.49817 322.71564 482.09192 322.325Q481.7013 321.9344 480.93567 321.9344Q480.24817 321.9344 479.79504 322.27814Q479.34192 322.6219 479.34192 323.10626L478.06067 323.10626Q478.06067 322.54376 478.4513 322.02814Q478.85754 321.5125 479.52942 321.21564Q480.2013 320.91876 480.99817 320.91876Q482.27942 320.91876 482.99817 321.5594Q483.73254 322.2 483.7638 323.3094L483.7638 326.71564Q483.7638 327.73126 484.0138 328.34064L484.0138 328.45L482.7013 328.45ZM480.59192 327.48126Q481.18567 327.48126 481.71692 327.1844Q482.2638 326.8719 482.49817 326.3719L482.49817 324.85626L481.49817 324.85626Q479.18567 324.85626 479.18567 326.21564Q479.18567 326.8094 479.5763 327.15314Q479.96692 327.48126 480.59192 327.48126ZM489.7013 322.1844Q489.42004 322.1375 489.0763 322.1375Q487.84192 322.1375 487.3888 323.2L487.3888 328.45L486.12317 328.45L486.12317 321.0594L487.35754 321.0594L487.37317 321.90314Q487.99817 320.91876 489.1388 320.91876Q489.5138 320.91876 489.7013 321.0125L489.7013 322.1844ZM495.6388 327.3719L500.35754 327.3719L500.35754 328.45L494.3263 328.45L494.3263 318.4969L495.6388 318.4969L495.6388 327.3719ZM501.79504 324.6844Q501.79504 323.59064 502.21692 322.73126Q502.65442 321.85626 503.40442 321.3875Q504.17004 320.91876 505.15442 320.91876Q506.65442 320.91876 507.59192 321.96564Q508.52942 323.0125 508.52942 324.7469L508.52942 324.84064Q508.52942 325.91876 508.10754 326.77814Q507.7013 327.6219 506.92004 328.10626Q506.15442 328.59064 505.17004 328.59064Q503.65442 328.59064 502.71692 327.54376Q501.79504 326.4969 501.79504 324.77814L501.79504 324.6844ZM503.06067 324.84064Q503.06067 326.0594 503.62317 326.8094Q504.2013 327.5594 505.17004 327.5594Q506.12317 327.5594 506.68567 326.8094Q507.2638 326.04376 507.2638 324.6844Q507.2638 323.46564 506.68567 322.71564Q506.10754 321.95 505.15442 321.95Q504.21692 321.95 503.6388 322.7Q503.06067 323.45 503.06067 324.84064ZM513.0919 327.5594Q513.7638 327.5594 514.2638 327.15314Q514.7794 326.73126 514.8419 326.1219L516.0294 326.1219Q515.99817 326.7469 515.5919 327.325Q515.18567 327.90314 514.5138 328.2469Q513.8419 328.59064 513.0919 328.59064Q511.5763 328.59064 510.68567 327.59064Q509.79504 326.575 509.79504 324.825L509.79504 324.60626Q509.79504 323.52814 510.18567 322.6844Q510.59192 321.84064 511.3263 321.3875Q512.0763 320.91876 513.0919 320.91876Q514.3263 320.91876 515.1544 321.66876Q515.98254 322.40314 516.0294 323.59064L514.8419 323.59064Q514.7794 322.8719 514.29504 322.41876Q513.81067 321.95 513.0919 321.95Q512.12317 321.95 511.59192 322.65314Q511.06067 323.34064 511.06067 324.65314L511.06067 324.8875Q511.06067 326.16876 511.59192 326.8719Q512.12317 327.5594 513.0919 327.5594ZM519.18567 325.02814L518.4044 325.85626L518.4044 328.45L517.1388 328.45L517.1388 317.95L518.4044 317.95L518.4044 324.29376L519.0763 323.48126L521.37317 321.0594L522.92004 321.0594L520.04504 324.1375L523.24817 328.45L521.7638 328.45L519.18567 325.02814ZM528.7013 327.71564Q527.9513 328.59064 526.5294 328.59064Q525.3419 328.59064 524.7169 327.90314Q524.10754 327.21564 524.10754 325.8719L524.10754 321.0594L525.35754 321.0594L525.35754 325.825Q525.35754 327.5125 526.73254 327.5125Q528.18567 327.5125 528.6544 326.4344L528.6544 321.0594L529.92004 321.0594L529.92004 328.45L528.7169 328.45L528.7013 327.71564ZM538.37317 324.84064Q538.37317 326.52814 537.5919 327.5594Q536.8263 328.59064 535.5138 328.59064Q534.17004 328.59064 533.3888 327.73126L533.3888 331.29376L532.12317 331.29376L532.12317 321.0594L533.2794 321.0594L533.3419 321.8719Q534.12317 320.91876 535.49817 320.91876Q536.8263 320.91876 537.5919 321.91876Q538.37317 322.91876 538.37317 324.71564L538.37317 324.84064ZM537.10754 324.6844Q537.10754 323.4344 536.5763 322.71564Q536.04504 321.9969 535.10754 321.9969Q533.9669 321.9969 533.3888 323.0125L533.3888 326.54376Q533.9669 327.5594 535.12317 327.5594Q536.04504 327.5594 536.5763 326.84064Q537.10754 326.10626 537.10754 324.6844ZM543.04504 324.48126Q543.04504 325.9969 542.6388 327.40314Q542.24817 328.79376 541.42004 329.98126Q540.5919 331.16876 539.7013 331.66876L539.43567 330.8875Q540.48254 330.09064 541.12317 328.3875Q541.7638 326.6844 541.7794 324.6219L541.7794 324.40314Q541.7794 322.96564 541.4669 321.73126Q541.17004 320.4969 540.6388 319.52814Q540.10754 318.54376 539.43567 317.9969L539.7013 317.21564Q540.5919 317.71564 541.4044 318.8875Q542.23254 320.0594 542.6388 321.46564Q543.04504 322.8719 543.04504 324.48126Z" fill-rule="nonzero"/><path fill="#7baaf7" d="M180.67006 344.95C180.67006 348.2637 177.98376 350.95 174.67006 350.95C171.35634 350.95 168.67006 348.2637 168.67006 344.95C168.67006 341.6363 171.35634 338.95 174.67006 338.95C177.98376 338.95 180.67006 341.6363 180.67006 344.95Z" fill-rule="nonzero"/><path fill="#1a1a1a" d="M195.31068 345.0594L191.13881 345.0594L191.13881 349.45L189.82631 349.45L189.82631 339.4969L195.99818 339.4969L195.99818 340.575L191.13881 340.575L191.13881 343.98126L195.31068 343.98126L195.31068 345.0594ZM197.29506 345.6844Q197.29506 344.59064 197.71693 343.73126Q198.15443 342.85626 198.90443 342.3875Q199.67006 341.91876 200.65443 341.91876Q202.15443 341.91876 203.09193 342.96564Q204.02943 344.0125 204.02943 345.7469L204.02943 345.84064Q204.02943 346.91876 203.60756 347.77814Q203.20131 348.6219 202.42006 349.10626Q201.65443 349.59064 200.67006 349.59064Q199.15443 349.59064 198.21693 348.54376Q197.29506 347.4969 197.29506 345.77814L197.29506 345.6844ZM198.56068 345.84064Q198.56068 347.0594 199.12318 347.8094Q199.70131 348.5594 200.67006 348.5594Q201.62318 348.5594 202.18568 347.8094Q202.76381 347.04376 202.76381 345.6844Q202.76381 344.46564 202.18568 343.71564Q201.60756 342.95 200.65443 342.95Q199.71693 342.95 199.13881 343.7Q198.56068 344.45 198.56068 345.84064ZM210.20131 348.71564Q209.45131 349.59064 208.02943 349.59064Q206.84193 349.59064 206.21693 348.90314Q205.60756 348.21564 205.60756 346.8719L205.60756 342.0594L206.85756 342.0594L206.85756 346.825Q206.85756 348.5125 208.23256 348.5125Q209.68568 348.5125 210.15443 347.4344L210.15443 342.0594L211.42006 342.0594L211.42006 349.45L210.21693 349.45L210.20131 348.71564ZM214.82631 342.0594L214.85756 342.98126Q215.71693 341.91876 217.07631 341.91876Q219.42006 341.91876 219.45131 344.5594L219.45131 349.45L218.18568 349.45L218.18568 344.5594Q218.17006 343.7625 217.81068 343.3875Q217.45131 342.9969 216.70131 342.9969Q216.07631 342.9969 215.60756 343.325Q215.15443 343.65314 214.88881 344.1844L214.88881 349.45L213.62318 349.45L213.62318 342.0594L214.82631 342.0594ZM221.32631 345.6844Q221.32631 343.98126 222.12318 342.95Q222.93568 341.91876 224.23256 341.91876Q225.54506 341.91876 226.29506 342.8094L226.29506 338.95L227.56068 338.95L227.56068 349.45L226.40443 349.45L226.34193 348.65314Q225.57631 349.59064 224.23256 349.59064Q222.93568 349.59064 222.12318 348.54376Q221.32631 347.48126 221.32631 345.77814L221.32631 345.6844ZM222.59193 345.84064Q222.59193 347.09064 223.10756 347.8094Q223.62318 348.5125 224.54506 348.5125Q225.74818 348.5125 226.29506 347.4344L226.29506 344.02814Q225.73256 342.9969 224.56068 342.9969Q223.62318 342.9969 223.10756 343.71564Q222.59193 344.41876 222.59193 345.84064ZM234.20131 349.45Q234.09193 349.23126 234.01381 348.66876Q233.13881 349.59064 231.90443 349.59064Q230.81068 349.59064 230.10756 348.98126Q229.42006 348.35626 229.42006 347.40314Q229.42006 346.2469 230.29506 345.60626Q231.17006 344.96564 232.76381 344.96564L233.99818 344.96564L233.99818 344.3875Q233.99818 343.71564 233.59193 343.325Q233.20131 342.9344 232.43568 342.9344Q231.74818 342.9344 231.29506 343.27814Q230.84193 343.6219 230.84193 344.10626L229.56068 344.10626Q229.56068 343.54376 229.95131 343.02814Q230.35756 342.5125 231.02943 342.21564Q231.70131 341.91876 232.49818 341.91876Q233.77943 341.91876 234.49818 342.5594Q235.23256 343.2 235.26381 344.3094L235.26381 347.71564Q235.26381 348.73126 235.51381 349.34064L235.51381 349.45L234.20131 349.45ZM232.09193 348.48126Q232.68568 348.48126 233.21693 348.1844Q233.76381 347.8719 233.99818 347.3719L233.99818 345.85626L232.99818 345.85626Q230.68568 345.85626 230.68568 347.21564Q230.68568 347.8094 231.07631 348.15314Q231.46693 348.48126 232.09193 348.48126ZM239.34193 340.2625L239.34193 342.0594L240.71693 342.0594L240.71693 343.02814L239.34193 343.02814L239.34193 347.6219Q239.34193 348.0594 239.52943 348.29376Q239.71693 348.5125 240.15443 348.5125Q240.37318 348.5125 240.76381 348.41876L240.76381 349.45Q240.26381 349.59064 239.79506 349.59064Q238.93568 349.59064 238.49818 349.075Q238.07631 348.5594 238.07631 347.6219L238.07631 343.02814L236.73256 343.02814L236.73256 342.0594L238.07631 342.0594L238.07631 340.2625L239.34193 340.2625ZM243.99818 349.45L242.73256 349.45L242.73256 342.0594L243.99818 342.0594L243.99818 349.45ZM242.63881 340.09064Q242.63881 339.77814 242.82631 339.575Q243.01381 339.35626 243.37318 339.35626Q243.74818 339.35626 243.93568 339.575Q244.13881 339.77814 244.13881 340.09064Q244.13881 340.40314 243.93568 340.60626Q243.74818 340.8094 243.37318 340.8094Q243.01381 340.8094 242.82631 340.60626Q242.63881 340.40314 242.63881 340.09064ZM245.29506 345.6844Q245.29506 344.59064 245.71693 343.73126Q246.15443 342.85626 246.90443 342.3875Q247.67006 341.91876 248.65443 341.91876Q250.15443 341.91876 251.09193 342.96564Q252.02943 344.0125 252.02943 345.7469L252.02943 345.84064Q252.02943 346.91876 251.60756 347.77814Q251.20131 348.6219 250.42006 349.10626Q249.65443 349.59064 248.67006 349.59064Q247.15443 349.59064 246.21693 348.54376Q245.29506 347.4969 245.29506 345.77814L245.29506 345.6844ZM246.56068 345.84064Q246.56068 347.0594 247.12318 347.8094Q247.70131 348.5594 248.67006 348.5594Q249.62318 348.5594 250.18568 347.8094Q250.76381 347.04376 250.76381 345.6844Q250.76381 344.46564 250.18568 343.71564Q249.60756 342.95 248.65443 342.95Q247.71693 342.95 247.13881 343.7Q246.56068 344.45 246.56068 345.84064ZM254.82631 342.0594L254.85756 342.98126Q255.71693 341.91876 257.0763 341.91876Q259.42004 341.91876 259.4513 344.5594L259.4513 349.45L258.18567 349.45L258.18567 344.5594Q258.17004 343.7625 257.81067 343.3875Q257.4513 342.9969 256.7013 342.9969Q256.0763 342.9969 255.60756 343.325Q255.15443 343.65314 254.88881 344.1844L254.88881 349.45L253.62318 349.45L253.62318 342.0594L254.82631 342.0594Z" fill-rule="nonzero"/><path fill="#f07b72" d="M288.67004 344.95C288.67004 348.2637 285.98376 350.95 282.67004 350.95C279.35635 350.95 276.67004 348.2637 276.67004 344.95C276.67004 341.6363 279.35635 338.95 282.67004 338.95C285.98376 338.95 288.67004 341.6363 288.67004 344.95Z" fill-rule="nonzero"/><path fill="#1a1a1a" d="M304.7013 340.575L301.49817 340.575L301.49817 349.45L300.2013 349.45L300.2013 340.575L296.99817 340.575L296.99817 339.4969L304.7013 339.4969L304.7013 340.575ZM309.2013 343.1844Q308.92004 343.1375 308.5763 343.1375Q307.34192 343.1375 306.8888 344.2L306.8888 349.45L305.62317 349.45L305.62317 342.0594L306.85754 342.0594L306.87317 342.90314Q307.49817 341.91876 308.6388 341.91876Q309.0138 341.91876 309.2013 342.0125L309.2013 343.1844ZM313.7013 349.59064Q312.18567 349.59064 311.24817 348.60626Q310.31067 347.60626 310.31067 345.95L310.31067 345.73126Q310.31067 344.6219 310.73254 343.7625Q311.15442 342.8875 311.90442 342.40314Q312.65442 341.91876 313.54504 341.91876Q314.98254 341.91876 315.77942 342.8719Q316.5763 343.8094 316.5763 345.59064L316.5763 346.10626L311.5763 346.10626Q311.59192 347.2 312.2013 347.8875Q312.8263 348.5594 313.7638 348.5594Q314.43567 348.5594 314.8888 348.29376Q315.35754 348.0125 315.71692 347.5594L316.48254 348.15314Q315.56067 349.59064 313.7013 349.59064ZM313.54504 342.95Q312.77942 342.95 312.24817 343.5125Q311.73254 344.075 311.60754 345.075L315.31067 345.075L315.31067 344.98126Q315.2638 344.0125 314.79504 343.48126Q314.3263 342.95 313.54504 342.95ZM322.2013 349.45Q322.09192 349.23126 322.0138 348.66876Q321.1388 349.59064 319.90442 349.59064Q318.81067 349.59064 318.10754 348.98126Q317.42004 348.35626 317.42004 347.40314Q317.42004 346.2469 318.29504 345.60626Q319.17004 344.96564 320.7638 344.96564L321.99817 344.96564L321.99817 344.3875Q321.99817 343.71564 321.59192 343.325Q321.2013 342.9344 320.43567 342.9344Q319.74817 342.9344 319.29504 343.27814Q318.84192 343.6219 318.84192 344.10626L317.56067 344.10626Q317.56067 343.54376 317.9513 343.02814Q318.35754 342.5125 319.02942 342.21564Q319.7013 341.91876 320.49817 341.91876Q321.77942 341.91876 322.49817 342.5594Q323.23254 343.2 323.2638 344.3094L323.2638 347.71564Q323.2638 348.73126 323.5138 349.34064L323.5138 349.45L322.2013 349.45ZM320.09192 348.48126Q320.68567 348.48126 321.21692 348.1844Q321.7638 347.8719 321.99817 347.3719L321.99817 345.85626L320.99817 345.85626Q318.68567 345.85626 318.68567 347.21564Q318.68567 347.8094 319.0763 348.15314Q319.46692 348.48126 320.09192 348.48126ZM329.93567 347.48126Q329.93567 346.98126 329.54504 346.7Q329.15442 346.40314 328.2013 346.2Q327.24817 345.9969 326.67004 345.71564Q326.10754 345.41876 325.84192 345.02814Q325.5763 344.6375 325.5763 344.09064Q325.5763 343.16876 326.34192 342.54376Q327.10754 341.91876 328.31067 341.91876Q329.56067 341.91876 330.34192 342.575Q331.12317 343.21564 331.12317 344.23126L329.85754 344.23126Q329.85754 343.7 329.42004 343.325Q328.98254 342.95 328.31067 342.95Q327.62317 342.95 327.23254 343.2625Q326.84192 343.5594 326.84192 344.04376Q326.84192 344.4969 327.2013 344.73126Q327.56067 344.96564 328.49817 345.1844Q329.4513 345.3875 330.04504 345.6844Q330.6388 345.98126 330.92004 346.40314Q331.2013 346.8094 331.2013 347.40314Q331.2013 348.3875 330.40442 348.9969Q329.60754 349.59064 328.34192 349.59064Q327.46692 349.59064 326.77942 349.27814Q326.09192 348.95 325.7013 348.3875Q325.3263 347.825 325.3263 347.16876L326.59192 347.16876Q326.62317 347.8094 327.09192 348.1844Q327.5763 348.5594 328.34192 348.5594Q329.06067 348.5594 329.49817 348.2625Q329.93567 347.96564 329.93567 347.48126ZM337.2013 348.71564Q336.4513 349.59064 335.02942 349.59064Q333.84192 349.59064 333.21692 348.90314Q332.60754 348.21564 332.60754 346.8719L332.60754 342.0594L333.85754 342.0594L333.85754 346.825Q333.85754 348.5125 335.23254 348.5125Q336.68567 348.5125 337.15442 347.4344L337.15442 342.0594L338.42004 342.0594L338.42004 349.45L337.21692 349.45L337.2013 348.71564ZM344.2013 343.1844Q343.92004 343.1375 343.5763 343.1375Q342.34192 343.1375 341.8888 344.2L341.8888 349.45L340.62317 349.45L340.62317 342.0594L341.85754 342.0594L341.87317 342.90314Q342.49817 341.91876 343.6388 341.91876Q344.0138 341.91876 344.2013 342.0125L344.2013 343.1844ZM348.04504 347.59064L349.7638 342.0594L351.12317 342.0594L348.15442 350.59064Q347.46692 352.4344 345.9513 352.4344L345.71692 352.41876L345.24817 352.325L345.24817 351.3094L345.59192 351.325Q346.23254 351.325 346.59192 351.0594Q346.9513 350.8094 347.18567 350.1219L347.46692 349.3719L344.8263 342.0594L346.2013 342.0594L348.04504 347.59064Z" fill-rule="nonzero"/><path fill="#fcd04f" d="M379.67004 344.95C379.67004 348.2637 376.98376 350.95 373.67004 350.95C370.35635 350.95 367.67004 348.2637 367.67004 344.95C367.67004 341.6363 370.35635 338.95 373.67004 338.95C376.98376 338.95 379.67004 341.6363 379.67004 344.95Z" fill-rule="nonzero"/><path fill="#1a1a1a" d="M394.3263 346.85626L390.15442 346.85626L389.21692 349.45L387.85754 349.45L391.67004 339.4969L392.81067 339.4969L396.62317 349.45L395.27942 349.45L394.3263 346.85626ZM390.54504 345.77814L393.93567 345.77814L392.23254 341.1219L390.54504 345.77814ZM398.99817 349.45L397.73254 349.45L397.73254 342.0594L398.99817 342.0594L398.99817 349.45ZM397.6388 340.09064Q397.6388 339.77814 397.8263 339.575Q398.0138 339.35626 398.37317 339.35626Q398.74817 339.35626 398.93567 339.575Q399.1388 339.77814 399.1388 340.09064Q399.1388 340.40314 398.93567 340.60626Q398.74817 340.8094 398.37317 340.8094Q398.0138 340.8094 397.8263 340.60626Q397.6388 340.40314 397.6388 340.09064ZM404.2013 343.1844Q403.92004 343.1375 403.5763 343.1375Q402.34192 343.1375 401.8888 344.2L401.8888 349.45L400.62317 349.45L400.62317 342.0594L401.85754 342.0594L401.87317 342.90314Q402.49817 341.91876 403.6388 341.91876Q404.0138 341.91876 404.2013 342.0125L404.2013 343.1844ZM405.3263 345.6844Q405.3263 343.98126 406.12317 342.95Q406.93567 341.91876 408.23254 341.91876Q409.54504 341.91876 410.29504 342.8094L410.29504 338.95L411.56067 338.95L411.56067 349.45L410.40442 349.45L410.34192 348.65314Q409.5763 349.59064 408.23254 349.59064Q406.93567 349.59064 406.12317 348.54376Q405.3263 347.48126 405.3263 345.77814L405.3263 345.6844ZM406.59192 345.84064Q406.59192 347.09064 407.10754 347.8094Q407.62317 348.5125 408.54504 348.5125Q409.74817 348.5125 410.29504 347.4344L410.29504 344.02814Q409.73254 342.9969 408.56067 342.9969Q407.62317 342.9969 407.10754 343.71564Q406.59192 344.41876 406.59192 345.84064ZM417.2013 343.1844Q416.92004 343.1375 416.5763 343.1375Q415.34192 343.1375 414.8888 344.2L414.8888 349.45L413.62317 349.45L413.62317 342.0594L414.85754 342.0594L414.87317 342.90314Q415.49817 341.91876 416.6388 341.91876Q417.0138 341.91876 417.2013 342.0125L417.2013 343.1844ZM418.29504 345.6844Q418.29504 344.59064 418.71692 343.73126Q419.15442 342.85626 419.90442 342.3875Q420.67004 341.91876 421.65442 341.91876Q423.15442 341.91876 424.09192 342.96564Q425.02942 344.0125 425.02942 345.7469L425.02942 345.84064Q425.02942 346.91876 424.60754 347.77814Q424.2013 348.6219 423.42004 349.10626Q422.65442 349.59064 421.67004 349.59064Q420.15442 349.59064 419.21692 348.54376Q418.29504 347.4969 418.29504 345.77814L418.29504 345.6844ZM419.56067 345.84064Q419.56067 347.0594 420.12317 347.8094Q420.7013 348.5594 421.67004 348.5594Q422.62317 348.5594 423.18567 347.8094Q423.7638 347.04376 423.7638 345.6844Q423.7638 344.46564 423.18567 343.71564Q422.60754 342.95 421.65442 342.95Q420.71692 342.95 420.1388 343.7Q419.56067 344.45 419.56067 345.84064ZM432.87317 345.84064Q432.87317 347.52814 432.09192 348.5594Q431.3263 349.59064 430.0138 349.59064Q428.67004 349.59064 427.8888 348.73126L427.8888 352.29376L426.62317 352.29376L426.62317 342.0594L427.77942 342.0594L427.84192 342.8719Q428.62317 341.91876 429.99817 341.91876Q431.3263 341.91876 432.09192 342.91876Q432.87317 343.91876 432.87317 345.71564L432.87317 345.84064ZM431.60754 345.6844Q431.60754 344.4344 431.0763 343.71564Q430.54504 342.9969 429.60754 342.9969Q428.46692 342.9969 427.8888 344.0125L427.8888 347.54376Q428.46692 348.5594 429.62317 348.5594Q430.54504 348.5594 431.0763 347.84064Q431.60754 347.10626 431.60754 345.6844Z" fill-rule="nonzero"/></svg>